<svg width="143" height="141" viewBox="0 0 143 141" fill="none" xmlns="http://www.w3.org/2000/svg">
<rect width="143" height="141" rx="26" fill="#EEF2F4"/>
<path d="M56.8239 40C56.8239 38.8954 57.7193 38 58.8239 38H66.6705C67.775 38 68.6705 38.8954 68.6705 40V65.9545C68.6705 69.2784 67.875 72.1548 66.2841 74.5838C64.7074 76.9986 62.5057 78.8665 59.679 80.1875C56.8523 81.4943 53.571 82.1477 49.8352 82.1477C46.071 82.1477 42.7756 81.4943 39.9489 80.1875C37.1222 78.8665 34.9205 76.9986 33.3438 74.5838C31.7812 72.1548 31 69.2784 31 65.9545V40C31 38.8954 31.8954 38 33 38H40.8466C41.9512 38 42.8466 38.8954 42.8466 40V64.9318C42.8466 66.2813 43.1449 67.4886 43.7415 68.554C44.3381 69.6051 45.1619 70.429 46.2131 71.0256C47.2784 71.6222 48.4858 71.9205 49.8352 71.9205C51.1989 71.9205 52.4062 71.6222 53.4574 71.0256C54.5085 70.429 55.3324 69.6051 55.929 68.554C56.5256 67.4886 56.8239 66.2813 56.8239 64.9318V40Z" fill="#C72B32"/>
<path d="M110.056 38C111.161 38 112.056 38.8954 112.056 40V79.6364C112.056 80.7409 111.161 81.6364 110.056 81.6364H103.222C102.563 81.6364 101.947 81.3122 101.574 80.7697L86.453 58.7828C86.4217 58.7374 86.3701 58.7102 86.3149 58.7102V58.7102C86.2224 58.7102 86.1474 58.7852 86.1474 58.8778V79.6364C86.1474 80.7409 85.2519 81.6364 84.1474 81.6364H76.3008C75.1962 81.6364 74.3008 80.7409 74.3008 79.6364V40C74.3008 38.8954 75.1962 38 76.3008 38H83.2982C83.9609 38 84.5805 38.3282 84.9528 38.8764L99.8026 60.7433C99.8441 60.8043 99.9132 60.8409 99.987 60.8409V60.8409C100.11 60.8409 100.21 60.7411 100.21 60.6181V40C100.21 38.8954 101.105 38 102.21 38H110.056Z" fill="#C72B32"/>
<path d="M68.9757 89.1818V91.7386H62.507V89.1818H68.9757ZM63.7598 86.8295H67.2882V95.8423C67.2882 95.9787 67.3117 96.0938 67.3586 96.1875C67.4054 96.277 67.4779 96.3452 67.5759 96.392C67.6739 96.4347 67.7996 96.456 67.953 96.456C68.0595 96.456 68.1831 96.4432 68.3238 96.4176C68.4686 96.392 68.5752 96.3707 68.6434 96.3537L69.1547 98.8338C68.997 98.8807 68.7712 98.9382 68.4772 99.0064C68.1874 99.0746 67.8422 99.1193 67.4417 99.1406C66.632 99.1832 65.9523 99.1001 65.4026 98.8913C64.8529 98.6783 64.4395 98.3437 64.1625 97.8878C63.8855 97.4318 63.7513 96.8608 63.7598 96.1747V86.8295ZM77.862 94.7045V89.1818H81.3904V99H78.041V97.1335H77.9387C77.7257 97.7599 77.3528 98.25 76.8201 98.6037C76.2875 98.9531 75.6546 99.1278 74.9217 99.1278C74.2356 99.1278 73.6348 98.9702 73.1191 98.6548C72.6078 98.3395 72.2093 97.9048 71.9238 97.3509C71.6426 96.7969 71.4998 96.1619 71.4956 95.446V89.1818H75.024V94.7045C75.0282 95.1903 75.1518 95.5717 75.3947 95.8487C75.6419 96.1257 75.987 96.2642 76.4302 96.2642C76.7242 96.2642 76.9778 96.2024 77.1909 96.0788C77.4082 95.951 77.5744 95.772 77.6894 95.5419C77.8088 95.3075 77.8663 95.0284 77.862 94.7045ZM90.1201 89.1818V91.7386H83.6514V89.1818H90.1201ZM84.9042 86.8295H88.4326V95.8423C88.4326 95.9787 88.4561 96.0938 88.5029 96.1875C88.5498 96.277 88.6222 96.3452 88.7203 96.392C88.8183 96.4347 88.944 96.456 89.0974 96.456C89.2039 96.456 89.3275 96.4432 89.4681 96.4176C89.613 96.392 89.7195 96.3707 89.7877 96.3537L90.2991 98.8338C90.1414 98.8807 89.9156 98.9382 89.6215 99.0064C89.3318 99.0746 88.9866 99.1193 88.586 99.1406C87.7764 99.1832 87.0967 99.1001 86.547 98.8913C85.9972 98.6783 85.5839 98.3437 85.3069 97.8878C85.0299 97.4318 84.8957 96.8608 84.9042 96.1747V86.8295ZM97.2646 99.179C96.1992 99.179 95.2873 98.968 94.5288 98.5462C93.7703 98.12 93.1886 97.5277 92.7837 96.7692C92.3789 96.0064 92.1765 95.1222 92.1765 94.1165C92.1765 93.1108 92.3789 92.2287 92.7837 91.4702C93.1886 90.7074 93.7703 90.1151 94.5288 89.6932C95.2873 89.267 96.1992 89.054 97.2646 89.054C98.3299 89.054 99.2418 89.267 100 89.6932C100.759 90.1151 101.341 90.7074 101.745 91.4702C102.15 92.2287 102.353 93.1108 102.353 94.1165C102.353 95.1222 102.15 96.0064 101.745 96.7692C101.341 97.5277 100.759 98.12 100 98.5462C99.2418 98.968 98.3299 99.179 97.2646 99.179ZM97.2901 96.571C97.5884 96.571 97.8462 96.4709 98.0636 96.2706C98.2809 96.0703 98.4492 95.7848 98.5685 95.4141C98.6879 95.0433 98.7475 94.6023 98.7475 94.0909C98.7475 93.5753 98.6879 93.1342 98.5685 92.7678C98.4492 92.397 98.2809 92.1115 98.0636 91.9112C97.8462 91.7109 97.5884 91.6108 97.2901 91.6108C96.9748 91.6108 96.7042 91.7109 96.4783 91.9112C96.2525 92.1115 96.0799 92.397 95.9606 92.7678C95.8413 93.1342 95.7816 93.5753 95.7816 94.0909C95.7816 94.6023 95.8413 95.0433 95.9606 95.4141C96.0799 95.7848 96.2525 96.0703 96.4783 96.2706C96.7042 96.4709 96.9748 96.571 97.2901 96.571ZM104.864 99V89.1818H108.291V91.0483H108.393C108.572 90.358 108.855 89.853 109.243 89.5334C109.635 89.2138 110.093 89.054 110.617 89.054C110.771 89.054 110.922 89.0668 111.071 89.0923C111.225 89.1136 111.372 89.1456 111.512 89.1882V92.1989C111.337 92.1392 111.122 92.0945 110.867 92.0646C110.611 92.0348 110.391 92.0199 110.208 92.0199C109.863 92.0199 109.552 92.0987 109.275 92.2564C109.002 92.4098 108.787 92.6271 108.629 92.9084C108.472 93.1854 108.393 93.5114 108.393 93.8864V99H104.864Z" fill="#2B2D40"/>
<path d="M62 103L112 103" stroke="#2B2D40" stroke-width="2" stroke-linecap="round"/>
<rect x="1" y="1" width="141" height="139" rx="25" stroke="#2B2D40" stroke-opacity="0.3" stroke-width="2"/>
</svg>
