<svg width="143" height="141" viewBox="0 0 143 141" fill="none" xmlns="http://www.w3.org/2000/svg">
<rect x="0.5" y="0.5" width="142" height="140" rx="19.5" fill="#2B2D40"/>
<path d="M56.8063 50.3636C56.8063 49.2591 57.7017 48.3636 58.8063 48.3636H66.6529C67.7574 48.3636 68.6529 49.2591 68.6529 50.3636V76.3182C68.6529 79.6421 67.8574 82.5185 66.2665 84.9475C64.6898 87.3622 62.4881 89.2301 59.6614 90.5511C56.8347 91.858 53.5534 92.5114 49.8176 92.5114C46.0534 92.5114 42.758 91.858 39.9313 90.5511C37.1046 89.2301 34.9029 87.3622 33.3262 84.9475C31.7637 82.5185 30.9824 79.6421 30.9824 76.3182V50.3636C30.9824 49.2591 31.8779 48.3636 32.9824 48.3636H40.829C41.9336 48.3636 42.829 49.2591 42.829 50.3636V75.2955C42.829 76.6449 43.1273 77.8523 43.7239 78.9176C44.3205 79.9688 45.1444 80.7926 46.1955 81.3892C47.2608 81.9858 48.4682 82.2841 49.8176 82.2841C51.1813 82.2841 52.3887 81.9858 53.4398 81.3892C54.4909 80.7926 55.3148 79.9688 55.9114 78.9176C56.508 77.8523 56.8063 76.6449 56.8063 75.2955V50.3636Z" fill="#C72B32"/>
<path d="M110.039 48.3636C111.143 48.3636 112.039 49.2591 112.039 50.3636V90C112.039 91.1046 111.143 92 110.039 92H103.204C102.546 92 101.93 91.6759 101.556 91.1333L86.4354 69.1465C86.4042 69.101 86.3525 69.0739 86.2974 69.0739V69.0739C86.2048 69.0739 86.1298 69.1489 86.1298 69.2414V90C86.1298 91.1046 85.2344 92 84.1298 92H76.2832C75.1786 92 74.2832 91.1046 74.2832 90V50.3636C74.2832 49.2591 75.1786 48.3636 76.2832 48.3636H83.2806C83.9433 48.3636 84.5629 48.6919 84.9352 49.24L99.7851 71.1069C99.8266 71.168 99.8956 71.2046 99.9694 71.2046V71.2046C100.093 71.2046 100.192 71.1048 100.192 70.9817V50.3636C100.192 49.2591 101.088 48.3636 102.192 48.3636H110.039Z" fill="#C72B32"/>
<path d="M78.4811 99.3636V101.352H73.4499V99.3636H78.4811ZM74.4243 97.5341H77.1686V104.544C77.1686 104.65 77.1869 104.74 77.2233 104.812C77.2598 104.882 77.3161 104.935 77.3924 104.972C77.4686 105.005 77.5664 105.021 77.6857 105.021C77.7685 105.021 77.8647 105.011 77.974 104.991C78.0867 104.972 78.1696 104.955 78.2226 104.942L78.6203 106.871C78.4977 106.907 78.322 106.952 78.0933 107.005C77.868 107.058 77.5995 107.093 77.288 107.109C76.6582 107.143 76.1296 107.078 75.702 106.915C75.2745 106.75 74.953 106.49 74.7375 106.135C74.5221 105.78 74.4177 105.336 74.4243 104.803V97.5341ZM85.3927 103.659V99.3636H88.137V107H85.5319V105.548H85.4523C85.2866 106.036 84.9966 106.417 84.5823 106.692C84.168 106.964 83.6758 107.099 83.1058 107.099C82.5721 107.099 82.1048 106.977 81.7038 106.732C81.306 106.486 80.9961 106.148 80.7741 105.717C80.5553 105.286 80.4443 104.793 80.441 104.236V99.3636H83.1853V103.659C83.1886 104.037 83.2847 104.334 83.4737 104.549C83.6659 104.764 83.9344 104.872 84.2791 104.872C84.5077 104.872 84.705 104.824 84.8707 104.728C85.0397 104.629 85.169 104.489 85.2585 104.31C85.3513 104.128 85.396 103.911 85.3927 103.659ZM94.9268 99.3636V101.352H89.8955V99.3636H94.9268ZM90.8699 97.5341H93.6143V104.544C93.6143 104.65 93.6325 104.74 93.6689 104.812C93.7054 104.882 93.7617 104.935 93.838 104.972C93.9142 105.005 94.012 105.021 94.1313 105.021C94.2142 105.021 94.3103 105.011 94.4197 104.991C94.5323 104.972 94.6152 104.955 94.6682 104.942L95.066 106.871C94.9433 106.907 94.7677 106.952 94.539 107.005C94.3136 107.058 94.0451 107.093 93.7336 107.109C93.1038 107.143 92.5752 107.078 92.1476 106.915C91.7201 106.75 91.3986 106.49 91.1831 106.135C90.9677 105.78 90.8633 105.336 90.8699 104.803V97.5341ZM100.484 107.139C99.655 107.139 98.9457 106.975 98.3557 106.647C97.7658 106.316 97.3133 105.855 96.9985 105.265C96.6836 104.672 96.5262 103.984 96.5262 103.202C96.5262 102.42 96.6836 101.733 96.9985 101.143C97.3133 100.55 97.7658 100.089 98.3557 99.7614C98.9457 99.4299 99.655 99.2642 100.484 99.2642C101.312 99.2642 102.021 99.4299 102.611 99.7614C103.201 100.089 103.654 100.55 103.969 101.143C104.284 101.733 104.441 102.42 104.441 103.202C104.441 103.984 104.284 104.672 103.969 105.265C103.654 105.855 103.201 106.316 102.611 106.647C102.021 106.975 101.312 107.139 100.484 107.139ZM100.503 105.111C100.735 105.111 100.936 105.033 101.105 104.877C101.274 104.721 101.405 104.499 101.498 104.211C101.591 103.923 101.637 103.58 101.637 103.182C101.637 102.781 101.591 102.438 101.498 102.153C101.405 101.864 101.274 101.642 101.105 101.487C100.936 101.331 100.735 101.253 100.503 101.253C100.258 101.253 100.048 101.331 99.872 101.487C99.6964 101.642 99.5622 101.864 99.4694 102.153C99.3765 102.438 99.3301 102.781 99.3301 103.182C99.3301 103.58 99.3765 103.923 99.4694 104.211C99.5622 104.499 99.6964 104.721 99.872 104.877C100.048 105.033 100.258 105.111 100.503 105.111ZM106.395 107V99.3636H109.059V100.815H109.139C109.278 100.278 109.499 99.8857 109.8 99.6371C110.105 99.3885 110.461 99.2642 110.869 99.2642C110.988 99.2642 111.106 99.2741 111.222 99.294C111.341 99.3106 111.456 99.3355 111.565 99.3686V101.71C111.429 101.664 111.262 101.629 111.063 101.606C110.864 101.583 110.693 101.571 110.551 101.571C110.282 101.571 110.04 101.632 109.825 101.755C109.613 101.874 109.445 102.043 109.323 102.262C109.2 102.478 109.139 102.731 109.139 103.023V107H106.395Z" fill="#8F99AC"/>
<rect x="0.5" y="0.5" width="142" height="140" rx="19.5" stroke="#E8E8E8"/>
</svg>
