<svg width="257" height="257" viewBox="0 0 257 257" fill="none" xmlns="http://www.w3.org/2000/svg">
<g clip-path="url(#clip0_122_390)">
<path d="M217 0H40C17.9086 0 0 17.9086 0 40V217C0 239.091 17.9086 257 40 257H217C239.091 257 257 239.091 257 217V40C257 17.9086 239.091 0 217 0Z" fill="#7896FF"/>
<path d="M227.615 150.725C227.604 142.927 227.565 126.968 227.565 121.298C227.565 121.298 227.565 121.219 227.569 121.065C192.401 100.833 139.445 70.2259 115.394 56.3047C95.0286 68.0858 54.0414 91.7693 30.3291 105.391C30.3291 112.006 30.3774 131.604 30.3735 137.418C52.003 149.942 108.642 182.682 143.464 202.704C168.183 188.494 208.6 165.137 227.619 154.129V153.83C227.619 153.07 227.617 152.008 227.615 150.725Z" fill="white"/>
<path d="M114.926 56.5742C94.4796 68.4035 54.1547 91.7041 30.5859 105.244C48.4455 115.588 113.024 152.921 142.96 170.09C164.818 157.562 212.683 129.912 227.566 121.296C227.566 121.296 227.566 121.217 227.57 121.064C192.401 100.831 139.446 70.2239 115.395 56.3027L114.926 56.5742Z" fill="#7896FF"/>
<path d="M228.92 150.725C228.913 145.462 228.903 140.199 228.89 134.935C228.881 130.315 228.773 125.683 228.874 121.064C228.874 120.836 228.814 120.612 228.701 120.415C228.587 120.217 228.424 120.053 228.228 119.938C212.699 111.003 197.178 102.056 181.664 93.0954C166.276 84.2135 150.891 75.3257 135.51 66.432C129.024 62.6816 122.538 58.9297 116.052 55.1762C115.852 55.0608 115.625 55 115.394 55C115.162 55 114.935 55.0608 114.735 55.1762C104.399 61.1576 94.0611 67.1339 83.7202 73.1049C71.609 80.1007 59.4947 87.0909 47.3773 94.0755C41.4772 97.4753 35.5752 100.872 29.6711 104.265C29.475 104.381 29.3124 104.545 29.1991 104.743C29.0859 104.94 29.0259 105.164 29.0252 105.391C29.0252 112.928 29.0365 120.464 29.0591 128.001C29.0626 129.861 29.0654 131.721 29.0676 133.582C28.9697 134.917 28.9782 136.258 29.093 137.592C29.2431 138.481 30.2172 138.835 30.92 139.244L32.7091 140.278L36.6448 142.555C43.2426 146.375 49.8431 150.192 56.4461 154.008C64.5638 158.701 72.6823 163.392 80.8017 168.081C89.4326 173.066 98.0653 178.048 106.7 183.029C114.997 187.814 123.296 192.599 131.598 197.384C135.284 199.506 138.918 201.825 142.699 203.772C143.815 204.346 144.862 203.407 145.817 202.859L148.557 201.284C150.48 200.177 152.403 199.07 154.325 197.963C162.89 193.032 171.451 188.095 180.009 183.152C188.602 178.193 197.193 173.231 205.781 168.266C212.814 164.201 219.845 160.134 226.876 156.065C227.62 155.633 228.745 155.238 228.899 154.299C229.001 153.109 229.008 151.913 228.919 150.722C228.919 149.043 226.309 149.04 226.309 150.722C226.309 151.856 226.309 152.991 226.309 154.126L226.955 152.999C217.015 158.752 207.072 164.501 197.127 170.245C185.078 177.205 173.027 184.16 160.974 191.111C154.918 194.602 148.86 198.089 142.8 201.574H144.117C128.265 192.459 112.422 183.328 96.589 174.182C80.9479 165.154 65.3093 156.119 49.6734 147.078C43.4597 143.485 37.247 139.89 31.0355 136.294L31.6814 137.421C31.6866 128.734 31.6547 120.047 31.6423 111.36C31.6392 109.371 31.6375 107.383 31.637 105.394L30.9904 106.521C42.133 100.12 53.2685 93.7064 64.3972 87.2799C76.287 80.4155 88.1768 73.5468 100.067 66.6741C105.396 63.594 110.725 60.5126 116.052 57.4298H114.735C127.607 64.8802 140.483 72.325 153.362 79.7641C169.488 89.0818 185.618 98.3929 201.751 107.697C210.135 112.532 218.522 117.363 226.911 122.191L226.265 121.064C226.163 125.683 226.272 130.315 226.281 134.935C226.291 140.199 226.301 145.462 226.311 150.725C226.313 152.405 228.923 152.407 228.92 150.725Z" fill="#211715"/>
<path d="M141.914 170.003C141.914 179.023 141.93 188.042 141.961 197.062C141.964 198.889 141.966 200.714 141.968 202.536C141.968 204.215 144.577 204.218 144.577 202.536C144.577 193.728 144.545 184.919 144.53 176.111C144.527 174.074 144.525 172.037 144.524 170C144.524 168.321 141.914 168.318 141.914 170V170.003Z" fill="#211715"/>
<path d="M31.2291 107.119C36.4967 110.171 41.7657 113.221 47.0359 116.268C54.4472 120.555 61.86 124.84 69.2743 129.122C77.6903 133.984 86.1073 138.845 94.5251 143.704C102.807 148.483 111.09 153.259 119.375 158.032C126.382 162.068 133.391 166.1 140.404 170.126L142.561 171.366C144.02 172.203 145.337 169.949 143.878 169.112C137.1 165.226 130.326 161.333 123.556 157.433C115.365 152.717 107.177 147.998 98.9919 143.274C90.5293 138.388 82.0673 133.501 73.606 128.613C66.0073 124.222 58.4092 119.83 50.8118 115.437C45.2166 112.201 39.6225 108.963 34.0295 105.725L32.5464 104.863C31.0901 104.019 29.7747 106.273 31.2291 107.116V107.119Z" fill="#211715"/>
<path d="M143.234 179.871C137.387 176.518 131.545 173.159 125.705 169.794C118.582 165.692 111.46 161.587 104.34 157.478C96.9962 153.242 89.6539 149.003 82.3131 144.76C75.6857 140.932 69.0592 137.102 62.4335 133.27C57.5765 130.461 52.7197 127.651 47.8631 124.84L46.5679 124.09C45.1116 123.247 43.7962 125.501 45.2506 126.344C49.8218 128.991 54.3941 131.637 58.9676 134.282C65.4314 138.019 71.8959 141.756 78.3611 145.492C85.6644 149.711 92.9687 153.929 100.274 158.145C107.48 162.303 114.687 166.459 121.896 170.612C127.942 174.096 133.993 177.576 140.049 181.052L141.917 182.123C143.376 182.96 144.692 180.706 143.234 179.869V179.871Z" fill="#211715"/>
<path d="M136.071 186.317C130.408 183.069 124.753 179.807 119.107 176.53C117.651 175.686 116.335 177.941 117.79 178.783C123.439 182.055 129.094 185.317 134.754 188.57C136.214 189.407 137.53 187.153 136.071 186.317Z" fill="#211715"/>
<path d="M191.733 178.539C188.72 180.269 178.948 185.915 174.504 188.473C170.215 186.01 162.609 181.626 156.929 178.349C162.296 175.261 168.2 171.862 174.171 168.414C180 171.78 187.654 176.197 191.733 178.539Z" fill="#7896FF"/>
<path d="M156.928 179.654H156.934L156.276 179.476C161.733 182.631 167.195 185.779 172.662 188.92C173.163 189.296 173.728 189.579 174.329 189.755C174.982 189.843 175.587 189.355 176.128 189.044C177.156 188.451 178.185 187.858 179.214 187.265C181.552 185.916 183.891 184.568 186.229 183.219C188.282 182.035 190.336 180.852 192.391 179.668C192.584 179.551 192.745 179.386 192.856 179.188C192.967 178.991 193.026 178.768 193.026 178.542C193.026 178.315 192.967 178.092 192.856 177.895C192.745 177.697 192.584 177.532 192.391 177.415C186.531 174.051 180.677 170.676 174.829 167.29C173.372 166.449 172.056 168.704 173.512 169.544C179.363 172.923 185.217 176.298 191.073 179.668V177.412C185.325 180.714 179.583 184.026 173.848 187.347H175.165C172.294 185.696 169.423 184.043 166.552 182.388C164.942 181.461 163.333 180.533 161.724 179.605L159.328 178.222C158.658 177.835 157.721 177.042 156.929 177.042C155.249 177.042 155.246 179.651 156.929 179.651L156.928 179.654Z" fill="#211715"/>
<path d="M216.126 142.676C208.097 147.325 200.065 151.968 192.03 156.605C181.224 162.844 170.415 169.077 159.602 175.304C154.01 178.523 148.415 181.739 142.819 184.951C141.362 185.785 142.675 188.041 144.137 187.204C154.471 181.288 164.792 175.348 175.101 169.384C185.315 163.496 195.525 157.602 205.733 151.702C209.637 149.445 213.54 147.187 217.443 144.928C218.896 144.087 217.583 141.832 216.126 142.676Z" fill="#211715"/>
<path d="M143.76 171.135C155.1 164.637 166.428 158.118 177.745 151.579C189.954 144.539 202.16 137.492 214.361 130.439C218.982 127.769 223.602 125.097 228.222 122.424C229.675 121.582 228.362 119.326 226.904 120.17C217.264 125.751 207.62 131.325 197.972 136.892C185.297 144.212 172.617 151.525 159.933 158.83C154.104 162.185 148.274 165.536 142.442 168.882C140.985 169.717 142.298 171.973 143.76 171.135Z" fill="#211715"/>
<path d="M83.9121 87.5555C83.9206 94.9565 83.9519 102.358 83.9526 109.759C83.9526 111.438 86.5625 111.441 86.5625 109.759C86.5625 102.358 86.5305 94.9565 86.522 87.5555C86.522 85.876 83.9121 85.8734 83.9121 87.5555Z" fill="#211715"/>
<path d="M108.179 134.264C108.108 135.661 107.752 137.03 107.135 138.286C105.839 140.831 103.339 142.572 100.706 143.681C98.0732 144.791 97.696 144.503 94.9719 145.362C92.8481 146.032 90.6245 146.997 89.7143 149.147C89.3328 150.248 89.1064 151.397 89.0416 152.56C88.8459 156.963 88.8811 161.542 88.8263 166.073C88.8297 166.389 88.7322 166.698 88.548 166.955C88.3638 167.212 88.1024 167.404 87.8019 167.502C84.6965 168.407 81.4238 168.581 78.2399 168.012C77.9105 167.903 77.6172 167.706 77.3916 167.442C77.0472 167.117 76.7989 166.704 76.6739 166.247C76.4286 164.191 76.3105 162.21 76.2407 160.227C73.9616 160.733 71.3569 161.607 68.933 161.016C67.2476 160.604 65.6673 159.319 65.4096 157.604L65.1956 156.187C64.8191 149.258 64.4426 150.13 64.0668 143.202C63.9402 140.871 63.8384 138.413 64.9033 136.335C65.8208 134.782 67.0874 133.463 68.6028 132.484C71.5246 130.347 74.6933 128.571 78.0402 127.193C78.0402 127.193 103.818 133.374 108.179 134.264Z" fill="#7896FF"/>
<path d="M102.855 137.83C104.356 136.989 106.289 136.043 108.155 134.925C111.252 133.072 114.196 130.73 114.805 127.587C115.013 126.227 115.006 124.843 114.785 123.485C114.189 118.675 113.051 112.534 110.054 108.578C108.227 106.156 105.343 103.032 102.531 101.59C102.531 101.59 97.6523 99.2285 92.9128 98.9199C85.3036 98.4233 81.4096 101.667 81.4096 101.667C77.0002 105.008 73.9425 109.827 72.7969 115.239L71.4698 122.881L70.9902 125.637L102.855 137.83Z" fill="white"/>
<path d="M71.0867 174.117C70.9477 173.434 70.959 172.729 71.1201 172.05C71.2811 171.372 71.5879 170.737 72.0191 170.19C73.0062 169.016 74.2116 168.045 75.5686 167.331C76.9388 168.404 82.5057 168.611 86.4897 167.377C86.625 167.335 86.7532 167.273 86.8701 167.193C86.919 167.659 86.9503 167.946 86.9503 167.946C87.3647 171.73 85.0725 173.252 83.6175 174.117C81.8849 175.147 80.0186 175.933 78.0715 176.453C76.9013 176.814 75.6702 176.934 74.4522 176.807C73.8445 176.735 73.2597 176.532 72.7388 176.211C72.2178 175.889 71.7731 175.459 71.4358 174.948C71.2814 174.689 71.1639 174.409 71.0867 174.117Z" fill="white"/>
<path d="M60.2634 167.005C60.44 166.506 60.6915 166.037 61.0092 165.614C62.0818 164.369 63.3878 163.347 64.8536 162.604C65.6001 162.089 66.4467 161.738 67.3382 161.572C67.6933 161.75 68.067 161.888 68.4526 161.982C70.8766 162.573 73.4806 161.7 75.7603 161.193C75.8093 162.623 75.885 164.051 76.0148 165.507L74.9911 165.676C75.0674 167.307 73.6209 168.579 72.2167 169.414C70.5417 170.409 68.7373 171.169 66.8547 171.671C65.7235 172.021 64.5328 172.136 63.3555 172.01C62.7676 171.943 62.2018 171.747 61.6979 171.436C61.194 171.126 60.7645 170.709 60.4396 170.214C60.1778 169.725 60.0264 169.184 59.996 168.629C59.9655 168.075 60.0568 167.52 60.2634 167.005Z" fill="white"/>
<path d="M81.8919 88.9228C81.711 92.7399 82.9907 96.4825 85.4707 99.3898C87.719 101.968 90.8949 103.554 94.3068 103.801C97.7186 104.049 101.09 102.938 103.687 100.712C105.481 100.806 107.249 100.252 108.669 99.1516C109.305 98.6562 109.805 98.007 110.122 97.265C110.438 96.5231 110.56 95.7128 110.477 94.9105C110.375 94.3539 110.139 93.8308 109.788 93.3871C109.437 92.9434 108.982 92.5927 108.464 92.3659C109.443 89.8191 109.554 87.0201 108.779 84.4038C108.004 81.7875 106.387 79.5004 104.178 77.8979C98.3734 73.7743 90.1672 74.3419 85.397 79.7672C83.2121 82.3261 81.9744 85.559 81.8919 88.9228Z" fill="white"/>
<path d="M83.7824 82.051C82.9343 83.5701 82.36 85.2265 82.0859 86.9446C85.5356 87.2503 89.011 86.8316 92.2893 85.7153C92.3813 85.6842 92.4786 85.6724 92.5753 85.6807C92.672 85.689 92.7659 85.7172 92.8511 85.7636C93.2622 85.9952 92.7657 86.8937 92.5334 87.3048C93.9949 87.7165 97.5737 87.0438 99.1553 86.1747C100.034 88.3122 100.932 89.426 102.656 90.2331L107.283 92.0763C107.692 92.0988 108.093 92.1973 108.466 92.3667C109.444 89.8192 109.554 87.0201 108.778 84.4038C108.003 81.7874 106.385 79.5003 104.177 77.8974C98.3737 73.7744 90.1675 74.342 85.3973 79.7674C84.7807 80.4701 84.2395 81.2355 83.7824 82.051Z" fill="white"/>
<path d="M86.7801 168.605C86.9121 169.423 86.8246 170.261 86.5266 171.034C86.2286 171.808 85.7306 172.488 85.0837 173.006C83.2072 174.342 81.0934 175.308 78.8551 175.853C77.0452 176.333 73.4481 176.647 73.4128 173.872C73.3815 171.393 75.9405 169.957 77.7883 168.864C79.2336 168.01 77.9188 165.753 76.471 166.61C74.2872 167.901 72.0942 169.35 71.1696 171.83C70.7038 172.966 70.6736 174.235 71.0847 175.392C71.4958 176.55 72.3194 177.515 73.3978 178.103C75.9053 179.416 78.8617 178.712 81.3809 177.797C83.4399 177.117 85.3644 176.083 87.0678 174.741C87.9275 173.987 88.5888 173.033 88.9935 171.964C89.3983 170.895 89.5343 169.742 89.3893 168.608C89.3804 168.265 89.2401 167.938 88.9973 167.695C88.7544 167.452 88.4277 167.312 88.0844 167.303C87.7391 167.305 87.4087 167.444 87.1645 167.688C86.9203 167.932 86.782 168.263 86.7794 168.608L86.7801 168.605Z" fill="#211715"/>
<path d="M67.1227 159.907C65.9689 160.219 64.8771 160.726 63.8949 161.407C62.9166 161.969 62.0021 162.636 61.1675 163.395C59.5611 164.927 58.5048 167.317 59.216 169.529C59.967 171.868 62.4222 173.004 64.745 172.943C67.2499 172.878 69.8174 171.878 72.0221 170.75C74.1916 169.641 76.6214 167.956 76.6031 165.244C76.592 163.565 73.9815 163.561 73.9932 165.244C74.0063 167.161 71.1771 168.316 69.7482 168.956C68.7167 169.414 67.6469 169.78 66.5511 170.049C65.4479 170.41 64.2616 170.431 63.1465 170.109C61.2608 169.401 61.3078 167.35 62.3818 165.92C63.0618 165.106 63.8851 164.423 64.8109 163.905C65.7175 163.237 66.7352 162.736 67.8169 162.423C69.4611 162.088 68.7649 159.572 67.1227 159.907Z" fill="#211715"/>
<path d="M77.5135 126.464C73.8046 127.972 70.3086 129.959 67.1144 132.373C65.5151 133.477 64.2247 134.971 63.3659 136.714C62.6615 138.545 62.3744 140.511 62.5255 142.467C62.6201 145.282 62.8909 148.078 63.2289 150.872C63.5343 153.398 63.5193 155.971 63.9721 158.473C64.1732 159.365 64.59 160.195 65.1859 160.889C65.7818 161.582 66.5387 162.12 67.3904 162.453C69.5827 163.395 71.9975 163.044 74.2518 162.535C75.8895 162.165 75.1966 159.648 73.5582 160.018C71.1226 160.569 67.012 160.997 66.4704 157.66C66.1128 155.457 66.1161 153.186 65.8473 150.948C65.5654 148.599 65.3338 146.259 65.2033 143.898C65.0188 142.234 65.0755 140.554 65.3716 138.907C65.8063 137.323 66.752 135.927 68.0618 134.936C71.1235 132.45 74.5438 130.442 78.2065 128.981C78.5344 128.88 78.8115 128.657 78.9813 128.359C79.151 128.061 79.2006 127.709 79.1199 127.376C79.0266 127.043 78.8057 126.76 78.5052 126.589C78.2047 126.418 77.8488 126.372 77.5149 126.462L77.5135 126.464Z" fill="#211715"/>
<path d="M77.2425 139.048C75.0065 140.602 74.4454 143.039 74.4049 145.6C74.3638 148.199 74.5021 150.796 74.5831 153.392C74.6894 156.798 74.6744 160.209 74.9028 163.61C75.0085 165.185 74.8923 167.111 75.8932 168.416C76.8524 169.669 78.0294 169.932 79.5177 170.088C80.9463 170.228 82.3854 170.223 83.813 170.073C85.2981 169.985 86.7645 169.696 88.1728 169.217C89.8758 168.553 89.9502 166.921 89.9652 165.342C89.9828 163.548 89.9893 161.753 90.0069 159.96C90.0239 158.186 90.0506 156.412 90.1094 154.638C90.071 153.186 90.2623 151.737 90.6764 150.344C91.5474 147.985 94.6395 147.208 96.8162 146.683C99.6388 146.002 102.356 145.117 104.706 143.338C106.127 142.275 107.283 140.899 108.085 139.316C108.887 137.733 109.313 135.987 109.329 134.213C109.395 132.533 106.785 132.536 106.719 134.213C106.714 135.548 106.405 136.865 105.816 138.063C105.227 139.262 104.374 140.311 103.321 141.132C101.453 142.528 99.301 143.495 97.0171 143.963C94.691 144.479 92.2201 145.137 90.3162 146.638C88.2015 148.302 87.6795 150.844 87.5445 153.407C87.3729 156.641 87.3931 159.889 87.3709 163.128C87.3657 163.921 87.3594 164.713 87.352 165.505C87.3967 165.873 87.3925 166.246 87.3396 166.614C87.2659 166.823 87.2965 166.744 87.1589 166.821C86.5605 167.057 85.9311 167.206 85.2902 167.263C84.6279 167.383 83.9596 167.467 83.2884 167.515C82.0325 167.619 80.7698 167.609 79.5158 167.485C79.1047 167.481 78.6984 167.397 78.3198 167.237C77.7123 166.876 77.7286 166.176 77.6673 165.567C77.3685 162.496 77.3208 159.408 77.2595 156.324C77.2008 153.394 77.0514 150.467 77.0122 147.536C76.9979 146.433 76.9796 145.321 77.0644 144.22C77.0716 144.128 77.0788 144.037 77.0879 143.946C77.1147 143.685 77.0709 144.026 77.0951 143.903C77.159 143.555 77.2536 143.214 77.3776 142.883C77.6057 142.254 78.0142 141.706 78.5521 141.308C79.9223 140.356 78.6173 138.092 77.2354 139.054L77.2425 139.048Z" fill="#211715"/>
<path d="M80.6201 99.8287C75.932 103.355 72.6639 108.446 71.4091 114.177C71.06 115.815 73.5753 116.515 73.9257 114.871C74.9898 109.791 77.8302 105.257 81.9368 102.082C82.2275 101.9 82.4377 101.614 82.5248 101.282C82.6118 100.95 82.5691 100.598 82.4053 100.296C82.229 99.9994 81.9428 99.7838 81.6087 99.6962C81.2746 99.6087 80.9194 99.6562 80.6201 99.8287Z" fill="#211715"/>
<path d="M72.6156 127.72C71.1645 126.815 70.561 125.286 70.3242 123.663C70.0586 121.844 70.3698 119.528 73.0163 118.866C73.9674 118.677 74.9548 118.862 75.7736 119.381C76.6353 119.883 77.3335 120.623 77.7839 121.512C78.2344 122.402 78.4179 123.403 78.3124 124.394C78.1336 126.547 76.0999 128.528 73.9584 128.215C73.4813 128.145 73.0239 127.977 72.6156 127.72Z" fill="white"/>
<path d="M73.2744 126.592C72.9751 126.401 72.7104 126.16 72.4914 125.881C72.6082 126.026 72.4386 125.802 72.4144 125.765C72.3527 125.672 72.2939 125.576 72.2383 125.479C72.1939 125.401 72.1515 125.321 72.1078 125.241C72.1078 125.241 71.9466 124.874 72.0197 125.058C71.8727 124.672 71.7596 124.273 71.6817 123.868C71.6582 123.753 71.6365 123.639 71.6164 123.524C71.6014 123.435 71.5669 123.119 71.604 123.469C71.5871 123.305 71.5701 123.14 71.5616 122.974C71.5491 122.669 71.5559 122.364 71.5819 122.06C71.6001 121.816 71.5819 122.06 71.5753 122.104C71.5923 122.021 71.6054 121.937 71.6236 121.854C71.6647 121.67 71.7235 121.497 71.7815 121.318C71.6863 121.611 71.8376 121.21 71.8866 121.122C71.9355 121.035 72.2004 120.706 72.0073 120.92C72.1141 120.8 72.2269 120.686 72.3453 120.578C72.4966 120.441 72.0908 120.724 72.3922 120.543C72.4934 120.483 72.588 120.417 72.695 120.361C72.7668 120.323 72.8411 120.285 72.9162 120.252C72.7289 120.334 72.9344 120.252 72.9658 120.241C73.1598 120.177 73.3574 120.124 73.5576 120.083C73.2659 120.133 73.6783 120.092 73.7859 120.094C73.8936 120.096 74.0012 120.102 74.1082 120.113C74.2002 120.122 74.1963 120.122 74.0972 120.113C74.1663 120.126 74.2342 120.14 74.302 120.157C74.6829 120.247 75.0393 120.42 75.346 120.663C75.361 120.673 75.5417 120.81 75.4112 120.704C75.4817 120.759 75.5496 120.817 75.6168 120.875C75.7964 121.031 75.9664 121.198 76.1257 121.375C76.5443 121.841 76.8297 122.411 76.9517 123.026C76.9472 123.004 77.0248 123.41 76.9961 123.228C76.9674 123.046 77.0183 123.464 77.0163 123.44C77.0309 123.641 77.035 123.843 77.0287 124.045C77.0255 124.16 77.0196 124.276 77.0098 124.392C77.0144 124.334 77.0574 124.17 77.0033 124.438C76.9584 124.655 76.9 124.868 76.8284 125.077C76.6979 125.469 76.8845 124.979 76.7775 125.194C76.7182 125.314 76.6555 125.431 76.587 125.545C76.5079 125.705 76.4035 125.85 76.2777 125.976C76.1308 126.141 75.9716 126.293 75.8014 126.433C75.943 126.318 75.7753 126.452 75.7518 126.467C75.6416 126.537 75.5333 126.608 75.4191 126.671C75.1302 126.828 74.8103 126.919 74.4821 126.938C74.0534 126.952 73.6314 126.83 73.2763 126.589C72.9775 126.414 72.6215 126.366 72.2866 126.453C71.9518 126.541 71.6655 126.758 71.4908 127.057C71.3162 127.356 71.2673 127.712 71.3551 128.047C71.4429 128.382 71.6601 128.668 71.959 128.843C74.3732 130.278 77.1788 129.303 78.6965 127.086C79.3236 126.089 79.6542 124.934 79.6497 123.757C79.6452 122.579 79.3057 121.427 78.671 120.435C77.3785 118.448 74.9519 116.97 72.5377 117.64C71.5226 117.921 70.6256 118.523 69.9806 119.356C69.3356 120.189 68.9772 121.208 68.9589 122.261C68.7978 124.763 69.8163 127.455 71.9603 128.843C72.2592 129.018 72.6152 129.066 72.95 128.979C73.2849 128.891 73.5711 128.674 73.7458 128.375C73.9205 128.076 73.9693 127.72 73.8815 127.385C73.7937 127.05 73.5765 126.764 73.2776 126.589L73.2744 126.592Z" fill="#211715"/>
<path d="M81.0078 110.501V125.046C81.0078 126.726 83.6177 126.729 83.6177 125.046V110.501C83.6177 108.821 81.0078 108.819 81.0078 110.501Z" fill="#211715"/>
<path d="M81.8603 127.521C77.8469 128.201 73.7506 129.767 67.832 130.749C71.48 132.511 78.3408 135.885 84.9014 139.166C90.6021 136.844 92.2248 136.44 95.7926 135.072C89.8237 131.993 81.872 127.519 81.8603 127.521Z" fill="white"/>
<path d="M81.5133 126.263C76.7815 127.082 72.2286 128.691 67.4851 129.491C66.3994 129.674 66.199 131.406 67.1738 131.875C71.0306 133.736 74.873 135.633 78.7057 137.536C79.8575 138.107 81.0083 138.68 82.1579 139.253C82.7608 139.554 83.3604 139.862 83.9659 140.156C84.2751 140.324 84.6219 140.409 84.9736 140.405C85.3252 140.401 85.6699 140.307 85.9749 140.132C87.7744 139.406 89.5866 138.713 91.4113 138.052C92.989 137.483 94.5726 136.931 96.1392 136.332C97.1042 135.964 97.5342 134.505 96.4511 133.948C93.3596 132.35 90.3002 130.69 87.2512 129.014C85.68 128.151 84.1349 127.173 82.5194 126.394C81.0128 125.668 79.6877 127.918 81.2021 128.648C82.8176 129.427 84.3626 130.405 85.9338 131.268C88.9835 132.944 92.0429 134.603 95.1337 136.201L95.4456 133.816C91.8211 135.202 88.1522 136.448 84.5551 137.909L85.5606 138.04C79.8841 135.202 74.2075 132.377 68.4912 129.623L68.1793 132.008C72.9228 131.208 77.4751 129.599 82.2075 128.78C82.54 128.686 82.8222 128.465 82.9931 128.165C83.164 127.864 83.2099 127.509 83.121 127.175C83.0225 126.845 82.8002 126.566 82.5005 126.396C82.2009 126.226 81.8472 126.178 81.5133 126.263Z" fill="#211715"/>
<path d="M92.3679 133.565C92.7528 130.446 96.0165 127.845 100.207 129.65C100.84 131.596 101.94 134.537 102.616 136.996C101.694 137.741 100.898 138.389 100.898 138.389C99.549 140.016 96.5718 139.723 94.9523 138.738C94.0739 138.211 93.3641 137.444 92.9063 136.528C92.4485 135.612 92.2617 134.584 92.3679 133.565Z" fill="white"/>
<path d="M99.7558 128.094C98.0071 127.536 96.1105 127.678 94.4642 128.49C93.0537 129.24 91.97 130.484 91.4211 131.985C90.1292 135.378 92.1721 139.198 95.4965 140.415C97.5302 141.16 100.312 141.051 101.82 139.306C102.057 139.057 102.19 138.727 102.19 138.383C102.19 138.039 102.057 137.709 101.82 137.46C101.574 137.218 101.243 137.083 100.898 137.083C100.553 137.083 100.221 137.218 99.9751 137.46C99.9098 137.533 99.8446 137.599 99.7793 137.67C99.7362 137.719 99.5385 137.876 99.7415 137.722C99.6036 137.821 99.4586 137.909 99.3076 137.987C99.2423 138.021 99.0146 138.094 99.2521 138.015C99.1784 138.04 99.1066 138.066 99.0322 138.088C98.844 138.144 98.6522 138.188 98.4581 138.218C98.719 138.177 98.458 138.218 98.3882 138.218C98.2871 138.222 98.1866 138.231 98.0855 138.233C97.9021 138.233 97.7201 138.223 97.5368 138.216C97.4715 138.216 97.2046 138.183 97.4591 138.216C97.3789 138.205 97.2986 138.191 97.219 138.177C97.0026 138.137 96.7883 138.086 96.577 138.025C96.4086 137.976 96.2449 137.918 96.0811 137.857C96.3323 137.95 95.9088 137.773 95.8384 137.736C95.6889 137.654 95.5444 137.563 95.4058 137.464C95.088 137.244 95.5108 137.555 95.3366 137.411C95.2466 137.336 95.1578 137.261 95.0717 137.182C94.9464 137.068 94.8251 136.95 94.7096 136.826C94.66 136.773 94.6111 136.718 94.5628 136.664C94.5628 136.664 94.339 136.389 94.461 136.546C94.583 136.703 94.3768 136.427 94.3755 136.424C94.3364 136.367 94.2979 136.31 94.2613 136.252C94.1615 136.096 94.0702 135.935 93.9879 135.769C93.9507 135.695 93.9168 135.62 93.8829 135.546C93.9005 135.585 93.9768 135.807 93.9038 135.587C93.8542 135.434 93.7994 135.286 93.7576 135.13C93.725 135.009 93.6989 134.886 93.6734 134.763C93.6689 134.739 93.6245 134.437 93.6532 134.66C93.6813 134.876 93.6467 134.553 93.6441 134.511C93.6317 134.222 93.6376 133.932 93.6617 133.643C93.6447 133.936 93.6545 133.688 93.6832 133.542C93.7175 133.365 93.7611 133.19 93.8137 133.017C93.849 132.902 93.8946 132.79 93.9325 132.676C94.0238 132.399 93.8255 132.851 93.9246 132.698C93.9638 132.636 93.9899 132.56 94.0232 132.496C94.0849 132.375 94.1515 132.257 94.2228 132.143C94.2692 132.067 94.5804 131.643 94.3533 131.925C94.5226 131.712 94.7078 131.512 94.9073 131.326C94.9562 131.281 95.2701 131.024 95.1252 131.134C94.9549 131.265 95.2002 131.084 95.2159 131.074C95.2935 131.023 95.3699 130.971 95.4495 130.923C95.58 130.842 95.7196 130.768 95.8592 130.699C95.8756 130.691 96.1594 130.569 95.9623 130.649C95.7764 130.726 96.0811 130.609 96.1189 130.596C96.2876 130.537 96.4593 130.488 96.6331 130.448C96.7479 130.422 97.2014 130.364 96.8778 130.393C97.2639 130.362 97.6518 130.359 98.0385 130.382C98.0946 130.382 98.2943 130.412 98.0235 130.374C98.137 130.391 98.2499 130.41 98.3621 130.432C98.5964 130.479 98.8267 130.54 99.0557 130.609C99.221 130.654 99.3936 130.667 99.5636 130.645C99.7337 130.624 99.898 130.57 100.047 130.485C100.196 130.401 100.327 130.287 100.432 130.152C100.538 130.017 100.615 129.862 100.661 129.697C100.706 129.532 100.719 129.359 100.698 129.189C100.677 129.019 100.622 128.855 100.537 128.706C100.453 128.557 100.34 128.426 100.204 128.32C100.069 128.215 99.9145 128.138 99.7493 128.092L99.7558 128.094Z" fill="#211715"/>
<path d="M103.752 118.941C103.702 118.593 103.732 118.79 103.752 118.993C103.766 119.164 103.78 119.335 103.792 119.506C103.827 119.994 103.853 120.484 103.876 120.973C103.925 122.044 103.961 123.119 103.935 124.191C103.931 124.401 103.924 124.61 103.91 124.82C103.902 124.942 103.894 125.407 103.896 125.057C103.896 125.403 103.777 125.057 103.944 125.029C103.76 125.063 103.409 125.438 103.218 125.593C101.906 126.652 100.631 127.756 99.3165 128.811C99.1501 128.972 99.0309 129.176 98.9718 129.399C98.9127 129.623 98.9159 129.859 98.9811 130.081C99.796 132.553 100.718 134.991 101.406 137.504C101.461 137.695 101.559 137.871 101.692 138.02C101.825 138.168 101.99 138.284 102.175 138.359C102.359 138.434 102.558 138.467 102.757 138.455C102.956 138.442 103.149 138.385 103.323 138.287C108.734 135.26 116.295 132.176 116.135 124.832C115.994 121.602 115.487 118.399 114.622 115.284C113.944 112.314 112.684 109.508 110.916 107.027C108.776 104.222 106.224 101.422 103.064 99.7547C101.579 98.9717 100.259 101.223 101.747 102.008C104.268 103.338 106.325 105.48 108.116 107.663C109.792 109.748 111.03 112.15 111.756 114.725C112.529 117.41 113.07 120.156 113.373 122.933C113.56 124.487 113.707 126.162 113.098 127.646C112.568 128.797 111.789 129.815 110.818 130.629C108.253 132.954 104.996 134.359 102.005 136.033L103.922 136.816C103.235 134.303 102.313 131.866 101.498 129.393L101.162 130.662C102.568 129.534 103.927 128.347 105.338 127.224C106.316 126.447 106.489 125.688 106.537 124.491C106.634 122.408 106.546 120.321 106.272 118.254C106.179 117.921 105.958 117.638 105.657 117.467C105.357 117.296 105.001 117.25 104.667 117.34C104.338 117.439 104.059 117.661 103.889 117.96C103.719 118.259 103.67 118.612 103.753 118.945L103.752 118.941Z" fill="#211715"/>
<path d="M109.797 91.4531C110.649 88.7834 110.669 85.9175 109.852 83.2366C109.035 80.5558 107.422 78.1872 105.226 76.4461C103.061 74.7909 100.505 73.7229 97.8059 73.3457C95.1068 72.9684 92.3561 73.2947 89.8202 74.293C84.4699 76.4879 81.1149 81.4832 80.5329 87.165C80.2212 89.9845 80.6613 92.8364 81.8087 95.4307C82.9561 98.025 84.7698 100.269 87.0655 101.936C92.4066 105.666 100.13 105.01 104.854 100.583C106.083 99.4315 104.234 97.5889 103.009 98.7367C101.258 100.307 99.0816 101.323 96.7537 101.655C94.4259 101.988 92.0517 101.622 89.9318 100.605C85.5393 98.4104 83.0867 93.6969 83.0599 88.8849C83.0345 84.2595 85.2353 79.7581 89.3126 77.4209C91.2758 76.34 93.4833 75.7802 95.7243 75.7949C97.9654 75.8097 100.165 76.3984 102.114 77.5051C104.376 78.7752 106.127 80.7903 107.07 83.2069C108.012 85.6236 108.087 88.2923 107.282 90.7582C106.766 92.36 109.284 93.0464 109.799 91.4518L109.797 91.4531Z" fill="#211715"/>
<path d="M107.155 92.6724C107.463 92.6946 107.013 92.6156 107.286 92.6874C107.402 92.7174 107.52 92.7422 107.634 92.7788C107.7 92.8003 107.967 92.9275 107.769 92.827C107.877 92.8818 107.984 92.9373 108.087 93.0012C108.133 93.03 108.389 93.2153 108.217 93.0776C108.311 93.1537 108.401 93.2349 108.486 93.321C108.572 93.4058 108.653 93.4958 108.729 93.5904C108.576 93.3947 108.776 93.6772 108.802 93.7209C108.865 93.8241 108.922 93.9311 108.972 94.0413C108.868 93.809 108.995 94.132 109.01 94.1848C109.045 94.3025 109.071 94.4224 109.09 94.5437C109.053 94.2866 109.086 94.6474 109.09 94.7016C109.09 94.8321 109.084 94.9561 109.077 95.0839C109.061 95.3756 109.121 94.9841 109.05 95.2445C108.991 95.4572 108.878 95.8682 108.84 95.9563C108.661 96.3437 108.427 96.7034 108.146 97.0244C107.827 97.3836 107.443 97.6798 107.014 97.8974C106.578 98.1573 106.106 98.3518 105.613 98.4749C105.339 98.5521 105.062 98.6137 104.781 98.6595C104.688 98.6739 104.688 98.6739 104.781 98.6595C104.712 98.668 104.643 98.6745 104.574 98.6804C104.414 98.6941 104.254 98.7006 104.094 98.7045C103.748 98.7045 103.416 98.842 103.171 99.0867C102.927 99.3315 102.789 99.6634 102.789 100.009C102.789 100.356 102.927 100.688 103.171 100.932C103.416 101.177 103.748 101.314 104.094 101.314C107.207 101.238 110.353 99.5528 111.41 96.4992C111.663 95.8035 111.754 95.0594 111.676 94.3233C111.598 93.5873 111.353 92.8787 110.96 92.2516C110.538 91.6184 109.975 91.0915 109.315 90.7117C108.656 90.332 107.918 90.1098 107.158 90.0625C106.813 90.0644 106.482 90.2025 106.237 90.4468C105.993 90.6911 105.855 91.0219 105.853 91.3675C105.861 91.711 106.001 92.0382 106.244 92.2812C106.487 92.5242 106.814 92.6643 107.158 92.6724H107.155Z" fill="#211715"/>
<path d="M89.9944 92.9593C89.9779 93.2645 89.8939 93.5622 89.7483 93.831C89.6028 94.0998 89.3993 94.3329 89.1527 94.5135C88.8026 94.738 88.379 94.818 87.9711 94.7366C87.6927 94.6872 87.4298 94.5728 87.2039 94.4027C86.978 94.2327 86.7953 94.0118 86.6707 93.7579C86.4903 93.3507 86.4437 92.8967 86.5375 92.4613C86.6312 92.0259 86.8607 91.6315 87.1927 91.3346C87.5165 91.0654 87.9301 90.9286 88.3505 90.9517C88.771 90.9749 89.1671 91.1562 89.4594 91.4592C89.6543 91.6539 89.8034 91.8895 89.8959 92.149C89.9884 92.4084 90.0221 92.6852 89.9944 92.9593Z" fill="#211715"/>
<path d="M97.9281 94.5793C97.9114 94.8844 97.8272 95.1821 97.6817 95.4508C97.5362 95.7196 97.3328 95.9527 97.0864 96.1335C96.7362 96.3585 96.3123 96.4387 95.9041 96.3573C95.6258 96.3076 95.3632 96.1932 95.1374 96.0231C94.9116 95.8531 94.729 95.6323 94.6044 95.3786C94.4239 94.9712 94.3773 94.5172 94.471 94.0817C94.5648 93.6461 94.7943 93.2516 95.1264 92.9546C95.4501 92.6854 95.8636 92.5486 96.284 92.5719C96.7044 92.5951 97.1004 92.7766 97.3924 93.0799C97.5872 93.2745 97.7363 93.51 97.8289 93.7693C97.9216 94.0286 97.9554 94.3053 97.9281 94.5793Z" fill="#211715"/>
<path d="M97.7698 85.8123C98.1889 86.926 98.7803 87.967 99.5223 88.8972C100.172 89.6422 100.972 90.2399 101.871 90.6504C102.178 90.8177 102.537 90.8642 102.877 90.7809C103.124 90.7128 103.346 90.5731 103.515 90.3793C103.684 90.1855 103.791 89.9463 103.824 89.6916C103.858 89.4369 103.815 89.178 103.702 88.9475C103.589 88.7169 103.41 88.5249 103.188 88.3955C102.746 88.1909 102.328 87.9398 101.939 87.6464L102.2 87.8507C101.823 87.5552 101.485 87.2137 101.193 86.8341L101.397 87.0984C100.923 86.4466 100.532 85.739 100.231 84.9915L100.361 85.3027C100.335 85.2414 100.309 85.1794 100.284 85.1168C100.183 84.7932 99.9702 84.5158 99.6841 84.3338C99.5361 84.2473 99.3725 84.1907 99.2026 84.1674C99.0328 84.1441 98.86 84.1545 98.6941 84.198C98.5283 84.2415 98.3726 84.3173 98.2361 84.4209C98.0995 84.5246 97.9847 84.6542 97.8983 84.8023C97.808 84.9517 97.7497 85.1182 97.7273 85.2913C97.7048 85.4644 97.7186 85.6403 97.7678 85.8078L97.7698 85.8123Z" fill="#211715"/>
<path d="M98.3673 84.3412C96.8777 85.1242 94.3305 85.7342 92.7508 85.3395L93.5338 87.2565C94.0362 86.3587 94.5843 85.1105 93.7445 84.2225C92.7756 83.1968 91.3956 83.9191 90.2864 84.2225C87.7087 84.8939 85.0391 85.1431 82.3817 84.9604C80.7035 84.8671 80.7087 87.4769 82.3817 87.5702C84.1493 87.6752 85.9229 87.6141 87.6791 87.3876C88.5065 87.2786 89.3279 87.1376 90.1409 86.9471C90.5624 86.8492 90.9806 86.7406 91.3956 86.621C91.6286 86.5557 91.8595 86.4807 92.0899 86.4056C92.1825 86.3763 92.2752 86.3456 92.3672 86.3136C92.5498 86.2484 92.5518 86.2484 92.3737 86.3136L91.7982 85.9783L91.8954 86.0663L91.56 85.4909C91.4295 85.179 91.6736 85.2064 91.5248 85.468C91.438 85.622 91.363 85.7832 91.2762 85.9378C91.1782 86.1113 91.1206 86.3047 91.108 86.5035C91.0954 86.7024 91.128 86.9015 91.2033 87.086C91.2787 87.2704 91.3948 87.4354 91.543 87.5686C91.6913 87.7017 91.8677 87.7996 92.0592 87.8548C93.3333 88.0967 94.6436 88.0745 95.9088 87.7895C97.2242 87.5925 98.5001 87.1887 99.6892 86.5929C101.176 85.8099 99.8582 83.5556 98.3719 84.3392L98.3673 84.3412Z" fill="#211715"/>
<path d="M144.814 92.1167C144.814 88.8453 147.466 86.1934 150.737 86.1934C154.009 86.1934 156.661 88.8453 156.661 92.1167V114.148C156.661 117.472 155.865 120.348 154.274 122.777C152.698 125.192 150.496 127.06 147.669 128.381C144.843 129.688 141.561 130.341 137.825 130.341C134.061 130.341 130.766 129.688 127.939 128.381C125.112 127.06 122.911 125.192 121.334 122.777C119.772 120.348 118.99 117.472 118.99 114.148V92.1167C118.99 88.8453 121.642 86.1934 124.914 86.1934C128.185 86.1934 130.837 88.8453 130.837 92.1167V113.125C130.837 114.475 131.135 115.682 131.732 116.747C132.328 117.798 133.152 118.622 134.203 119.219C135.269 119.816 136.476 120.114 137.825 120.114C139.189 120.114 140.397 119.816 141.448 119.219C142.499 118.622 143.323 117.798 143.919 116.747C144.516 115.682 144.814 114.475 144.814 113.125V92.1167ZM194.123 86.1934C197.395 86.1934 200.047 88.8454 200.047 92.1169V123.351C200.047 126.929 197.146 129.83 193.568 129.83C191.435 129.83 189.439 128.78 188.23 127.022L174.443 106.976C174.412 106.931 174.36 106.904 174.305 106.904C174.213 106.904 174.138 106.979 174.138 107.071V123.906C174.138 127.178 171.486 129.83 168.214 129.83C164.943 129.83 162.291 127.178 162.291 123.906V92.7678C162.291 89.1368 165.235 86.1934 168.865 86.1934C171.044 86.1934 173.081 87.2722 174.304 89.0742L187.793 108.937C187.834 108.998 187.903 109.034 187.977 109.034C188.1 109.034 188.2 108.935 188.2 108.812V92.1169C188.2 88.8454 190.852 86.1934 194.123 86.1934Z" fill="white" stroke="#211715" stroke-width="2" stroke-linejoin="round"/>
</g>
<defs>
<clipPath id="clip0_122_390">
<rect width="257" height="257" fill="white"/>
</clipPath>
</defs>
</svg>
