<svg width="179" height="132" viewBox="0 0 179 132" fill="none" xmlns="http://www.w3.org/2000/svg">
<path d="M42.9005 5.95637L28.7293 79.1374C27.994 82.932 30.4756 86.6052 34.2711 87.3405L156.13 110.938C159.925 111.673 163.599 109.192 164.333 105.397L178.505 32.2163C179.239 28.4198 176.758 24.7475 172.963 24.0132L51.1045 0.414556C50.6535 0.32787 50.2044 0.285189 49.7615 0.285502C46.4765 0.28883 43.5481 2.6119 42.9005 5.95637Z" fill="url(#paint0_linear_1263_417)"/>
<path d="M68.8489 24.931C69.5348 21.9496 68.7857 18.9821 67.0641 16.7683L66.8641 16.7234C64.347 17.9602 62.3756 20.3026 61.6897 23.2831C60.9989 26.2856 61.762 29.2781 63.5116 31.4968C63.4906 31.5068 63.4676 31.5149 63.4456 31.5249L63.6666 31.5757C63.6526 31.5577 63.6346 31.5397 63.6196 31.5217C66.1627 30.2909 68.158 27.9335 68.8489 24.931Z" fill="#FF6A45"/>
<path d="M61.6775 13.366C56.5797 12.1936 51.478 15.4582 50.2817 20.658C49.0843 25.8579 52.247 31.0226 57.3438 32.196C59.4722 32.6855 61.601 32.4 63.4464 31.5247C63.4684 31.5147 63.4894 31.5067 63.5113 31.4967C61.7608 29.2779 60.9986 26.2854 61.6885 23.2829C62.3744 20.3025 64.3458 17.9601 66.8629 16.7223C66.8819 16.7133 66.8999 16.7003 66.9189 16.6912C65.6387 15.0711 63.8308 13.8614 61.6775 13.366Z" fill="#FF1E36"/>
<path d="M73.1935 16.0158C71.0402 15.5203 68.8844 15.8189 67.026 16.7172C67.04 16.7342 67.0511 16.7512 67.0641 16.7681C68.7856 18.9809 69.5337 21.9494 68.8479 24.9309C68.157 27.9334 66.1627 30.2908 63.6205 31.5216C63.6355 31.5396 63.6516 31.5566 63.6656 31.5756C64.9417 33.1687 66.7325 34.3574 68.8599 34.8469C73.9577 36.0203 79.0594 32.7557 80.2557 27.5548C81.453 22.356 78.2914 17.1892 73.1935 16.0158Z" fill="#FFB85B"/>
<path d="M6.00488 41.9841C2.69089 41.9841 0.00488281 44.6701 0.00488281 47.9841V125.771C0.00488281 129.085 2.69089 131.772 6.00488 131.772H137.665C140.978 131.772 143.665 129.085 143.665 125.771V47.9841C143.665 44.6701 140.978 41.9841 137.665 41.9841H6.00488Z" fill="url(#paint1_linear_1263_417)"/>
<path d="M20.229 54.3452L17.133 61.9972L15.88 55.4912C15.734 54.7642 15.153 54.3452 14.508 54.3452H9.44698L9.37598 54.6712C10.416 54.8922 11.596 55.2482 12.311 55.6282C12.749 55.8602 12.874 56.0632 13.018 56.6162L15.39 65.5892H18.534L23.354 54.3452H20.229Z" fill="#C5E4FF"/>
<path d="M24.6299 54.3452L22.1699 65.5892H25.1439L27.6039 54.3452H24.6299Z" fill="#C5E4FF"/>
<path d="M43.788 54.3452H41.249C40.678 54.3452 40.196 54.6692 39.983 55.1692L35.519 65.5892H38.642L39.263 63.9082H43.078L43.438 65.5892H46.189L43.788 54.3452ZM40.119 61.6042L41.685 57.3822L42.586 61.6042H40.119Z" fill="#C5E4FF"/>
<path d="M31.506 57.4601C31.516 57.0571 31.908 56.6291 32.768 56.5201C33.193 56.4651 34.369 56.4221 35.7 57.0221L36.223 54.6381C35.507 54.3841 34.587 54.1401 33.44 54.1401C30.5 54.1401 28.431 55.6681 28.414 57.8561C28.395 59.4761 29.891 60.3781 31.019 60.9171C32.177 61.4681 32.566 61.8211 32.561 62.3141C32.552 63.0681 31.637 63.4011 30.781 63.4141C29.285 63.4371 28.417 63.0191 27.725 62.7041L27.187 65.1671C27.881 65.4791 29.165 65.7511 30.495 65.7641C33.62 65.7641 35.664 64.2551 35.674 61.9171C35.687 58.9501 31.477 58.7861 31.506 57.4601Z" fill="#C5E4FF"/>
<path d="M13.834 81.702C13.834 83.005 14.89 84.061 16.194 84.061C17.496 84.061 18.553 83.005 18.553 81.702C18.553 80.399 17.496 79.343 16.194 79.343C14.89 79.343 13.834 80.399 13.834 81.702ZM21.384 81.702C21.384 83.005 22.44 84.061 23.743 84.061C25.046 84.061 26.103 83.005 26.103 81.702C26.103 80.399 25.046 79.343 23.743 79.343C22.44 79.343 21.384 80.399 21.384 81.702ZM28.933 81.702C28.933 83.005 29.99 84.061 31.293 84.061C32.596 84.061 33.652 83.005 33.652 81.702C33.652 80.399 32.596 79.343 31.293 79.343C29.99 79.343 28.933 80.399 28.933 81.702ZM36.483 81.702C36.483 83.005 37.539 84.061 38.842 84.061C40.145 84.061 41.202 83.005 41.202 81.702C41.202 80.399 40.145 79.343 38.842 79.343C37.539 79.343 36.483 80.399 36.483 81.702ZM48.751 81.702C48.751 83.005 49.807 84.061 51.11 84.061C52.413 84.061 53.47 83.005 53.47 81.702C53.47 80.399 52.413 79.343 51.11 79.343C49.807 79.343 48.751 80.399 48.751 81.702ZM56.301 81.702C56.301 83.005 57.357 84.061 58.66 84.061C59.963 84.061 61.019 83.005 61.019 81.702C61.019 80.399 59.963 79.343 58.66 79.343C57.357 79.343 56.301 80.399 56.301 81.702ZM63.851 81.702C63.851 83.005 64.907 84.061 66.21 84.061C67.513 84.061 68.569 83.005 68.569 81.702C68.569 80.399 67.513 79.343 66.21 79.343C64.907 79.343 63.851 80.399 63.851 81.702ZM71.402 81.702C71.402 83.005 72.458 84.061 73.761 84.061C75.064 84.061 76.119 83.005 76.119 81.702C76.119 80.399 75.064 79.343 73.761 79.343C72.458 79.343 71.402 80.399 71.402 81.702ZM83.67 81.702C83.67 83.005 84.726 84.061 86.028 84.061C87.331 84.061 88.389 83.005 88.389 81.702C88.389 80.399 87.331 79.343 86.028 79.343C84.726 79.343 83.67 80.399 83.67 81.702ZM91.22 81.702C91.22 83.005 92.275 84.061 93.579 84.061C94.881 84.061 95.939 83.005 95.939 81.702C95.939 80.399 94.881 79.343 93.579 79.343C92.275 79.343 91.22 80.399 91.22 81.702ZM98.769 81.702C98.769 83.005 99.827 84.061 101.129 84.061C102.432 84.061 103.488 83.005 103.488 81.702C103.488 80.399 102.432 79.343 101.129 79.343C99.827 79.343 98.769 80.399 98.769 81.702ZM106.319 81.702C106.319 83.005 107.376 84.061 108.678 84.061C109.98 84.061 111.038 83.005 111.038 81.702C111.038 80.399 109.98 79.343 108.678 79.343C107.376 79.343 106.319 80.399 106.319 81.702Z" fill="url(#paint2_linear_1263_417)"/>
<g opacity="0.4">
<path d="M14.4688 98.407H35.8138C36.3658 98.407 36.8138 98.855 36.8138 99.407V101.897C36.8138 102.449 36.3658 102.897 35.8138 102.897H14.4688C13.9168 102.897 13.4688 102.449 13.4688 101.897V99.407C13.4688 98.855 13.9168 98.407 14.4688 98.407ZM14.4688 107.386H77.1158C77.6678 107.386 78.1158 107.834 78.1158 108.386V117.16C78.1158 117.713 77.6678 118.16 77.1158 118.16H14.4688C13.9168 118.16 13.4688 117.713 13.4688 117.16V108.386C13.4688 107.834 13.9168 107.386 14.4688 107.386Z" fill="url(#paint3_linear_1263_417)"/>
</g>
<defs>
<linearGradient id="paint0_linear_1263_417" x1="167.788" y1="87.6799" x2="40.8504" y2="17.2138" gradientUnits="userSpaceOnUse">
<stop stop-color="#D9E4F2"/>
<stop offset="0.5" stop-color="#E2EBF6"/>
<stop offset="1" stop-color="#ECF2FA"/>
</linearGradient>
<linearGradient id="paint1_linear_1263_417" x1="144.151" y1="131.261" x2="-0.505103" y2="62.4211" gradientUnits="userSpaceOnUse">
<stop stop-color="#0E6CEE"/>
<stop offset="0.5" stop-color="#207AF7"/>
<stop offset="1" stop-color="#3188FF"/>
</linearGradient>
<linearGradient id="paint2_linear_1263_417" x1="102.139" y1="81.702" x2="-2.37601" y2="81.024" gradientUnits="userSpaceOnUse">
<stop stop-color="#3188FF"/>
<stop offset="0.5" stop-color="#48A2FF"/>
<stop offset="1" stop-color="#5FBDFF"/>
</linearGradient>
<linearGradient id="paint3_linear_1263_417" x1="77.8268" y1="103.047" x2="13.0338" y2="105.776" gradientUnits="userSpaceOnUse">
<stop stop-color="#3188FF"/>
<stop offset="0.5" stop-color="#48A2FF"/>
<stop offset="1" stop-color="#5FBDFF"/>
</linearGradient>
</defs>
</svg>
