<svg width="133" height="92" viewBox="0 0 133 92" fill="none" xmlns="http://www.w3.org/2000/svg">
<path d="M132.6 43.5999C132.6 19.6999 102.9 0.199951 66.3 0.199951C29.7 0.199951 0 19.6999 0 43.5999V46.0999C0 71.4999 26 92 66.3 92C106.9 92 132.6 71.4999 132.6 46.0999V43.5999Z" fill="#283480"/>
<path d="M130.1 43.6C130.1 66.1 101.5 84.4 66.3 84.4C31.1 84.4 2.5 66.1 2.5 43.6C2.5 21.1 31.1 2.80005 66.3 2.80005C101.5 2.80005 130.1 21.1 130.1 43.6Z" fill="#009FE3"/>
<path d="M45.1002 30.6999C45.1002 30.7999 44.4002 31.3999 44.8002 31.9999C45.8002 33.2999 48.9002 33.9999 52.1002 33.2999C54.0002 32.8999 56.4002 30.9999 58.7002 29.0999C61.2002 27.0999 63.7002 25.0999 66.2002 24.2999C68.9002 23.4999 70.6002 23.7999 71.7002 24.1999C72.9002 24.5999 74.4002 25.3999 76.7002 27.0999C81.1002 30.3999 98.6002 45.6999 101.6 48.2999C104 47.1999 114.9 42.4999 129.6 39.2999C128.3 31.3999 123.5 24.1999 116.3 18.3999C106.2 22.5999 93.8002 24.8999 81.8002 18.9999C81.7002 18.9999 75.2002 15.8999 68.7002 15.9999C59.1002 16.1999 55.0002 20.3999 50.6002 24.7999L45.1002 30.6999Z" fill="white"/>
<path d="M101 50C100.8 49.8 80.4001 31.9 75.7001 28.5C73.0001 26.5 71.5001 26 70.0001 25.8C69.2001 25.7 68.1001 25.8 67.3001 26.1C65.1001 26.7 62.3001 28.6 59.8001 30.6C57.2001 32.7 54.8001 34.6 52.5001 35.1C49.6001 35.7 46.1001 35 44.5001 33.9C43.8001 33.5 43.4001 33 43.2001 32.4C42.6001 31 43.7001 29.9 43.9001 29.7L49.5001 23.6L51.5001 21.6C49.7001 21.8 48.0001 22.3 46.4001 22.8C44.4001 23.4 42.4001 23.9 40.4001 23.9C39.6001 23.9 35.1001 23.2 34.3001 22.9C29.2001 21.5 24.7001 20.1 18.0001 17C10.0001 23 4.6001 30.4 3.1001 38.6C4.3001 38.9 6.1001 39.5 6.9001 39.6C25.0001 43.6 30.7001 47.8 31.7001 48.7C32.8001 47.5 34.4001 46.7 36.2001 46.7C38.2001 46.7 40.0001 47.7 41.1001 49.3C42.1001 48.5 43.6001 47.8 45.4001 47.8C46.2001 47.8 47.1001 48 48.0001 48.3C50.0001 49 51.1001 50.4 51.7001 51.6C52.4001 51.3 53.2001 51.1 54.2001 51.1C55.2001 51.1 56.2001 51.3 57.2001 51.8C60.5001 53.2 61.1001 56.5 60.8001 59H61.5001C65.5001 59 68.7001 62.2 68.7001 66.2C68.7001 67.4 68.4001 68.6 67.8001 69.6C68.9001 70.2 71.6001 71.6 74.0001 71.3C75.9001 71.1 76.7001 70.4 76.9001 70C77.1001 69.7 77.3001 69.4 77.1001 69.2L72.0001 63.5C72.0001 63.5 71.2001 62.7 71.4001 62.4C71.7001 62.1 72.2001 62.5 72.6001 62.8C75.2001 65 78.4001 68.3 78.4001 68.3C78.5001 68.3 78.7001 68.8 79.8001 69C80.8001 69.2 82.6001 69.1 83.8001 68.1L84.7001 67.2H84.6001C85.9001 65.5 84.5001 63.8 84.5001 63.8L78.5001 57.1C78.5001 57.1 77.6001 56.3 77.9001 56C78.2001 55.7 78.7001 56.1 79.1001 56.5C81.0001 58.1 83.7001 60.8 86.2001 63.3C86.7001 63.7 89.0001 65.1 91.9001 63.1C93.7001 61.9 94.1001 60.5 94.0001 59.4C93.9001 57.9 92.7001 56.9 92.7001 56.9L84.5001 48.7C84.5001 48.7 83.6001 48 83.9001 47.6C84.1001 47.3 84.7001 47.7 85.1001 48C87.7001 50.2 94.7001 56.6 94.7001 56.6C94.8001 56.7 97.2001 58.4 100.2 56.5C101.3 55.8 102 54.8 102 53.6C102.4 51.3 101 50 101 50Z" fill="white"/>
<path d="M61.4001 60.4C60.1001 60.4 58.8001 61.1 58.6001 61C58.5001 60.9 58.7001 60.3999 58.8001 60.0999C58.9001 59.7999 60.6001 54.7999 56.5001 53.0999C53.4001 51.7999 51.5001 53.3 50.8001 53.9C50.6001 54.1 50.6001 54.0999 50.5001 53.7999C50.4001 52.8999 50.0001 50.4999 47.4001 49.5999C43.6001 48.3999 41.1001 51.0999 40.5001 52.0999C40.2001 49.8999 38.4001 48.2 36.1001 48.2C33.6001 48.2 31.6001 50.1999 31.6001 52.5999C31.6001 55.0999 33.6001 57.0999 36.1001 57.0999C37.3001 57.0999 38.4001 56.6 39.2001 55.9V56.0999C39.0001 57.1999 38.7001 61.2 42.9001 62.8C44.6001 63.5 46.0001 62.9999 47.2001 62.0999C47.6001 61.8999 47.6001 62 47.6001 62.3C47.4001 63.3 47.6001 65.5 50.7001 66.8C53.0001 67.8 54.4001 66.8 55.4001 65.9C55.8001 65.5 55.9001 65.5999 55.9001 66.1999C56.0001 69.1999 58.5001 71.5 61.5001 71.5C64.6001 71.5 67.1001 69 67.1001 65.9C67.0001 62.9 64.5001 60.5 61.4001 60.4Z" fill="white"/>
</svg>
