<svg width="923" height="744" viewBox="0 0 923 744" fill="none" xmlns="http://www.w3.org/2000/svg">
<g clip-path="url(#clip0_1267_48)">
<path d="M250.676 671.035C253.598 647.537 268.161 624.384 290.571 616.737C281.733 640.923 281.735 667.456 290.577 691.641C294.02 700.956 298.82 710.957 295.581 720.345C293.566 726.187 288.635 730.656 283.124 733.45C277.613 736.245 271.496 737.577 265.456 738.882L264.268 739.865C254.679 718.214 247.754 694.533 250.676 671.035Z" fill="#F0F0F0"/>
<path d="M290.793 617.181C277.743 631.804 269.632 650.167 267.612 669.663C267.102 673.852 267.256 678.095 268.068 682.236C268.99 686.245 270.968 689.933 273.797 692.919C276.379 695.755 279.348 698.358 281.195 701.773C282.115 703.535 282.652 705.472 282.771 707.456C282.889 709.44 282.587 711.426 281.884 713.286C280.253 717.964 277.039 721.777 273.765 725.396C270.131 729.415 266.293 733.532 264.748 738.86C264.561 739.505 263.57 739.177 263.757 738.532C266.445 729.263 275.443 723.997 279.734 715.648C281.736 711.753 282.577 707.23 280.7 703.117C279.058 699.521 275.998 696.835 273.359 693.985C270.557 691.113 268.5 687.599 267.369 683.749C266.349 679.662 266.032 675.432 266.431 671.239C267.179 661.785 269.408 652.507 273.038 643.746C277.125 633.724 282.897 624.475 290.103 616.399C290.549 615.899 291.237 616.685 290.793 617.181Z" fill="white"/>
<path d="M267.892 663.347C264.667 662.564 261.826 660.66 259.875 657.976C257.924 655.291 256.991 652 257.242 648.691C257.296 648.022 258.338 648.073 258.285 648.743C258.045 651.824 258.915 654.89 260.736 657.386C262.558 659.882 265.212 661.645 268.219 662.356C268.872 662.511 268.542 663.501 267.892 663.347Z" fill="white"/>
<path d="M272.298 691.653C278.123 688.175 282.422 682.63 284.34 676.123C284.529 675.478 285.52 675.806 285.331 676.45C283.323 683.218 278.837 688.979 272.768 692.585C272.189 692.928 271.723 691.994 272.298 691.653Z" fill="white"/>
<path d="M278.093 634.713C279.278 635.276 280.584 635.536 281.894 635.469C283.204 635.403 284.477 635.012 285.598 634.332C286.172 633.981 286.638 634.916 286.067 635.264C284.825 636.009 283.419 636.439 281.971 636.516C280.524 636.593 279.081 636.314 277.766 635.704C277.637 635.657 277.531 635.562 277.47 635.44C277.408 635.317 277.395 635.176 277.434 635.045C277.478 634.914 277.572 634.805 277.695 634.743C277.819 634.681 277.962 634.67 278.093 634.713Z" fill="white"/>
<path d="M358.88 658.708C358.528 658.937 358.176 659.166 357.823 659.403C353.104 662.507 348.644 665.989 344.488 669.814C344.162 670.105 343.836 670.405 343.519 670.704C333.605 680.028 325.509 691.111 319.641 703.391C317.31 708.279 315.355 713.338 313.792 718.523C311.634 725.684 309.864 733.62 305.592 739.477C305.153 740.093 304.677 740.681 304.165 741.239H265.559C265.472 741.195 265.383 741.159 265.295 741.115L263.754 741.186C263.816 740.913 263.886 740.631 263.948 740.358C263.983 740.199 264.027 740.041 264.062 739.882C264.089 739.777 264.115 739.671 264.133 739.574C264.141 739.539 264.15 739.503 264.159 739.477C264.177 739.38 264.203 739.292 264.221 739.204C264.608 737.627 265.008 736.051 265.419 734.474C265.419 734.465 265.419 734.465 265.427 734.456C268.444 722.413 272.879 710.769 278.639 699.77C278.816 699.445 278.992 699.11 279.186 698.784C281.853 693.915 284.914 689.273 288.337 684.903C290.22 682.516 292.222 680.226 294.336 678.041C299.808 672.407 306.134 667.669 313.079 664.001C326.925 656.69 342.955 653.89 357.753 658.355C358.132 658.47 358.502 658.584 358.88 658.708Z" fill="#F0F0F0"/>
<path d="M358.793 659.198C339.569 663.016 322.037 672.794 308.686 687.144C305.757 690.182 303.326 693.663 301.481 697.458C299.803 701.213 299.162 705.349 299.623 709.436C299.976 713.256 300.78 717.122 300.199 720.961C299.873 722.921 299.136 724.791 298.036 726.446C296.936 728.102 295.499 729.506 293.818 730.568C289.699 733.321 284.837 734.43 280.044 735.349C274.723 736.37 269.18 737.346 264.738 740.67C264.2 741.072 263.607 740.214 264.144 739.812C271.871 734.029 282.226 735.242 290.679 731.16C294.623 729.255 298.017 726.149 298.994 721.736C299.849 717.876 299.023 713.889 298.632 710.025C298.123 706.044 298.597 702 300.012 698.245C301.658 694.368 303.951 690.799 306.794 687.692C313.083 680.593 320.449 674.528 328.622 669.718C337.92 664.177 348.097 660.267 358.713 658.157C359.37 658.027 359.446 659.068 358.793 659.198Z" fill="white"/>
<path d="M312.714 682.27C310.61 679.704 309.487 676.473 309.546 673.155C309.605 669.837 310.841 666.648 313.034 664.157C313.48 663.654 314.281 664.323 313.835 664.826C311.789 667.142 310.638 670.112 310.589 673.202C310.541 676.292 311.599 679.298 313.571 681.676C314 682.193 313.139 682.785 312.714 682.27Z" fill="white"/>
<path d="M299.189 707.524C305.934 708.254 312.705 706.415 318.154 702.374C318.694 701.973 319.287 702.831 318.748 703.232C313.07 707.426 306.019 709.326 299.003 708.551C298.334 708.476 298.524 707.45 299.189 707.524Z" fill="white"/>
<path d="M338.099 665.549C338.705 666.712 339.592 667.706 340.678 668.441C341.764 669.177 343.015 669.631 344.32 669.763C344.989 669.829 344.799 670.856 344.134 670.79C342.693 670.637 341.311 670.134 340.109 669.324C338.908 668.514 337.923 667.422 337.241 666.143C337.166 666.028 337.138 665.889 337.163 665.754C337.187 665.619 337.262 665.499 337.373 665.417C337.486 665.339 337.627 665.309 337.763 665.334C337.899 665.359 338.019 665.436 338.099 665.549Z" fill="white"/>
<path d="M363.718 543.353C344.782 501.469 345.481 448.378 374.868 413.034C384.7 462.045 411.55 505.997 450.669 537.116C465.799 549.063 483.871 560.775 488.004 579.605C490.576 591.321 486.93 603.713 480.628 613.919C474.326 624.125 465.541 632.521 456.855 640.795L455.881 643.626C418.089 617.461 382.654 585.238 363.718 543.353Z" fill="#F0F0F0"/>
<path d="M375.685 413.545C368.922 450.579 373.946 490.014 390.385 523.944C393.939 531.279 398.183 538.411 403.865 544.311C409.447 550.019 416.456 554.129 424.163 556.212C431.311 558.299 438.864 559.606 445.379 563.394C452.247 567.386 456.51 574.086 458.17 581.769C460.201 591.169 458.734 600.738 456.974 610.047C455.02 620.382 452.826 631.085 455.658 641.475C456.001 642.734 454.028 643.192 453.685 641.936C448.759 623.86 458.338 606.032 456.999 587.859C456.374 579.379 453.19 571.036 445.919 566.123C439.561 561.826 431.773 560.472 424.518 558.421C416.9 556.268 410.058 552.98 404.237 547.524C398.281 541.944 393.75 534.963 390.024 527.75C381.697 511.332 376.003 493.706 373.151 475.519C369.781 454.78 369.983 433.618 373.749 412.948C373.983 411.668 375.917 412.274 375.685 413.545Z" fill="white"/>
<path d="M384.461 513.197C378.326 515.163 371.692 514.884 365.744 512.411C359.796 509.937 354.921 505.43 351.989 499.694C351.4 498.531 353.179 497.561 353.769 498.725C356.489 504.072 361.031 508.27 366.574 510.562C372.118 512.854 378.298 513.089 384 511.224C385.239 510.82 385.693 512.795 384.461 513.197Z" fill="white"/>
<path d="M420.401 555.631C426.531 543.976 428.043 530.439 424.635 517.719C424.296 516.459 426.27 516 426.608 517.258C430.129 530.502 428.527 544.586 422.122 556.7C421.51 557.855 419.793 556.779 420.401 555.631Z" fill="white"/>
<path d="M372.386 455.439C374.918 455.173 377.345 454.282 379.447 452.846C381.55 451.41 383.263 449.475 384.433 447.214C385.03 446.052 386.747 447.129 386.154 448.283C384.85 450.775 382.955 452.911 380.635 454.502C378.316 456.093 375.642 457.092 372.847 457.412C372.586 457.464 372.315 457.415 372.089 457.274C371.863 457.134 371.699 456.912 371.63 456.655C371.57 456.394 371.616 456.119 371.758 455.892C371.899 455.664 372.125 455.501 372.386 455.439Z" fill="white"/>
<path d="M530.498 413.445C530.146 414.181 529.795 414.916 529.451 415.667C524.773 425.584 520.908 435.865 517.894 446.408C517.648 447.219 517.411 448.045 517.189 448.862C510.2 474.339 508.002 500.893 510.706 527.173C511.792 537.629 513.671 547.988 516.329 558.159C519.999 572.206 525.097 587.144 523.946 601.17C523.843 602.635 523.649 604.091 523.365 605.532L459.41 644.595C459.22 644.611 459.038 644.642 458.848 644.658L456.366 646.335C456.192 645.82 456.023 645.282 455.849 644.767C455.747 644.469 455.659 644.162 455.557 643.863C455.494 643.662 455.431 643.459 455.362 643.281C455.341 643.214 455.32 643.147 455.308 643.094C455.239 642.916 455.194 642.743 455.134 642.579C454.181 639.575 453.247 636.559 452.332 633.531C452.323 633.517 452.323 633.517 452.329 633.493C445.42 610.405 440.378 586.538 439.119 562.663C439.081 561.945 439.034 561.212 439.025 560.476C438.518 549.712 438.89 538.924 440.14 528.22C440.843 522.361 441.843 516.541 443.134 510.784C446.5 495.913 452.185 481.664 459.978 468.559C475.519 442.438 499.241 421.577 528.274 414.002C529.017 413.809 529.746 413.623 530.498 413.445Z" fill="#F0F0F0"/>
<path d="M530.851 414.344C503.154 439.842 483.423 474.353 476.12 511.342C474.541 519.338 473.636 527.588 474.62 535.719C475.64 543.638 478.763 551.139 483.662 557.443C488.113 563.412 493.357 569.003 496.278 575.95C499.358 583.273 498.728 591.189 495.428 598.323C491.39 607.051 484.457 613.808 477.448 620.181C469.665 627.256 461.469 634.482 457.475 644.482C456.991 645.694 455.139 644.872 455.623 643.662C462.572 626.264 480.954 617.796 490.826 602.48C495.433 595.333 497.914 586.754 495.066 578.454C492.576 571.195 487.174 565.425 482.616 559.42C477.829 553.114 474.347 546.369 472.983 538.509C471.587 530.468 472.173 522.165 473.54 514.163C476.776 496.041 482.842 478.539 491.515 462.301C501.31 443.713 514.213 426.938 529.665 412.701C530.622 411.821 531.801 413.469 530.851 414.344Z" fill="white"/>
<path d="M477.86 499.193C471.778 497.07 466.649 492.853 463.389 487.297C460.129 481.741 458.95 475.207 460.063 468.862C460.292 467.579 462.297 467.875 462.067 469.16C461.02 475.067 462.119 481.153 465.165 486.321C468.211 491.488 473.005 495.397 478.68 497.341C479.912 497.765 479.085 499.615 477.86 499.193Z" fill="white"/>
<path d="M481.007 554.713C492.919 549.098 502.276 539.2 507.214 526.992C507.702 525.782 509.554 526.603 509.067 527.812C503.905 540.506 494.146 550.787 481.738 556.603C480.554 557.156 479.831 555.264 481.007 554.713Z" fill="white"/>
<path d="M502.993 445.807C505.175 447.119 507.648 447.868 510.192 447.988C512.735 448.108 515.268 447.594 517.564 446.493C518.739 445.924 519.462 447.818 518.294 448.382C515.752 449.587 512.954 450.151 510.144 450.025C507.333 449.899 504.597 449.087 502.173 447.659C501.933 447.544 501.746 447.341 501.65 447.093C501.555 446.845 501.557 446.569 501.657 446.323C501.766 446.078 501.968 445.887 502.219 445.79C502.469 445.693 502.747 445.699 502.993 445.807Z" fill="white"/>
<path d="M586.405 742.239H340.324L348.955 714.274C402.447 694.91 372.4 653.287 423.283 627.846C547.741 565.617 595.923 379.921 577.698 306.514L659.258 303.066C659.258 303.066 771.892 622.929 586.405 742.239Z" fill="#3F3D56"/>
<path d="M653.499 591.853L725.436 537.238L760.5 572.301L643.308 652.498L653.499 591.853Z" fill="#3F3D56"/>
<path d="M227.378 386.632C227.291 386.439 227.203 386.246 227.116 386.051C227.15 386.052 227.183 386.057 227.217 386.058L227.378 386.632Z" fill="#2F2E41"/>
<path d="M233.404 131.239C261.571 131.239 284.404 108.405 284.404 80.2388C284.404 52.0722 261.571 29.2388 233.404 29.2388C205.238 29.2388 182.404 52.0722 182.404 80.2388C182.404 108.405 205.238 131.239 233.404 131.239Z" fill="#FF6584"/>
<path d="M325.44 41.1092C300.723 37.7683 272.505 51.1279 266.098 75.2327C264.484 70.9469 261.549 67.2852 257.717 64.7768C253.885 62.2683 249.355 61.0429 244.781 61.2776C240.208 61.5123 235.827 63.1949 232.272 66.0825C228.717 68.97 226.172 72.9128 225.005 77.3414L227.835 79.3681C280.802 90.8224 335.632 90.5745 388.493 78.6417C371.301 60.5728 350.157 44.4501 325.44 41.1092Z" fill="#F0F0F0"/>
<path d="M219.44 109.109C194.723 105.768 166.505 119.128 160.098 143.233C158.484 138.947 155.549 135.285 151.717 132.777C147.885 130.268 143.355 129.043 138.781 129.278C134.208 129.512 129.827 131.195 126.272 134.082C122.717 136.97 120.172 140.913 119.005 145.341L121.835 147.368C174.802 158.822 229.632 158.574 282.493 146.642C265.301 128.573 244.157 112.45 219.44 109.109Z" fill="#F0F0F0"/>
<path d="M554.048 637.775C558.396 602.81 580.066 568.359 613.412 556.98C600.261 592.969 600.264 632.45 613.42 668.437C618.544 682.298 625.686 697.18 620.866 711.149C617.868 719.841 610.531 726.491 602.331 730.649C594.13 734.808 585.029 736.789 576.041 738.732L574.272 740.195C560.005 707.978 549.7 672.74 554.048 637.775Z" fill="#E6E6E6"/>
<path d="M613.743 557.641C594.324 579.4 582.254 606.725 579.248 635.734C578.49 641.967 578.72 648.281 579.928 654.443C581.299 660.408 584.242 665.896 588.452 670.339C592.294 674.56 596.712 678.432 599.461 683.514C600.829 686.136 601.628 689.017 601.805 691.97C601.982 694.922 601.532 697.878 600.486 700.645C598.059 707.605 593.276 713.279 588.405 718.665C582.997 724.645 577.286 730.771 574.987 738.698C574.708 739.659 573.234 739.171 573.512 738.212C577.512 724.418 590.901 716.584 597.287 704.16C600.266 698.363 601.517 691.633 598.723 685.514C596.281 680.163 591.728 676.166 587.801 671.926C583.631 667.652 580.571 662.422 578.888 656.694C577.37 650.613 576.897 644.318 577.491 638.079C578.604 624.012 581.922 610.207 587.323 597.17C593.405 582.257 601.993 568.494 612.715 556.477C613.379 555.733 614.403 556.903 613.743 557.641Z" fill="white"/>
<path d="M579.666 626.336C574.868 625.171 570.639 622.338 567.737 618.343C564.834 614.348 563.445 609.452 563.82 604.528C563.899 603.532 565.45 603.608 565.371 604.606C565.014 609.19 566.308 613.751 569.018 617.465C571.729 621.18 575.678 623.803 580.153 624.861C581.125 625.092 580.633 626.565 579.666 626.336Z" fill="white"/>
<path d="M586.221 668.455C594.888 663.28 601.286 655.029 604.139 645.346C604.421 644.387 605.896 644.875 605.614 645.833C602.626 655.903 595.951 664.477 586.92 669.842C586.059 670.353 585.365 668.963 586.221 668.455Z" fill="white"/>
<path d="M594.846 583.728C596.608 584.565 598.552 584.952 600.501 584.853C602.45 584.754 604.344 584.173 606.013 583.161C606.867 582.64 607.56 584.03 606.711 584.548C604.862 585.657 602.77 586.297 600.616 586.411C598.463 586.525 596.315 586.11 594.359 585.202C594.167 585.132 594.01 584.992 593.918 584.81C593.826 584.628 593.807 584.417 593.865 584.222C593.93 584.027 594.07 583.866 594.254 583.773C594.437 583.681 594.65 583.664 594.846 583.728Z" fill="white"/>
<path d="M715.056 619.433C714.532 619.773 714.008 620.114 713.483 620.468C706.46 625.086 699.824 630.267 693.641 635.96C693.156 636.392 692.67 636.838 692.199 637.283C677.447 651.157 665.399 667.649 656.668 685.921C653.2 693.195 650.291 700.722 647.965 708.438C644.754 719.093 642.12 730.902 635.763 739.618C635.11 740.534 634.401 741.41 633.639 742.239H576.194C576.064 742.173 575.933 742.121 575.801 742.055L573.508 742.16C573.6 741.754 573.704 741.334 573.796 740.928C573.849 740.692 573.914 740.456 573.967 740.22C574.006 740.063 574.045 739.906 574.072 739.762C574.084 739.709 574.098 739.657 574.111 739.618C574.137 739.473 574.177 739.342 574.203 739.211C574.779 736.865 575.373 734.519 575.985 732.173C575.985 732.16 575.985 732.16 575.998 732.147C580.703 714.283 586.942 696.655 595.657 680.534C595.92 680.049 596.181 679.551 596.47 679.066C600.439 671.822 604.993 664.913 610.088 658.411C612.889 654.859 615.868 651.451 619.013 648.201C627.157 639.818 636.569 632.768 646.903 627.309C667.507 616.431 691.36 612.263 713.379 618.908C713.942 619.079 714.493 619.249 715.056 619.433Z" fill="#E6E6E6"/>
<path d="M714.927 620.162C686.321 625.843 660.233 640.393 640.368 661.746C636.01 666.266 632.391 671.446 629.646 677.093C627.15 682.681 626.195 688.835 626.882 694.917C627.408 700.6 628.604 706.353 627.739 712.065C627.253 714.982 626.156 717.764 624.52 720.227C622.884 722.691 620.745 724.781 618.244 726.36C612.115 730.457 604.88 732.107 597.749 733.475C589.83 734.994 581.582 736.446 574.973 741.392C574.173 741.991 573.29 740.713 574.089 740.115C585.587 731.51 600.995 733.316 613.573 727.241C619.442 724.406 624.492 719.786 625.946 713.218C627.218 707.475 625.989 701.542 625.407 695.792C624.65 689.869 625.355 683.851 627.46 678.264C629.909 672.495 633.322 667.184 637.552 662.56C646.911 651.998 657.871 642.973 670.033 635.816C683.867 627.57 699.011 621.752 714.807 618.613C715.785 618.419 715.898 619.969 714.927 620.162Z" fill="white"/>
<path d="M646.36 654.494C643.23 650.674 641.559 645.867 641.647 640.93C641.734 635.992 643.574 631.247 646.837 627.541C647.5 626.793 648.693 627.788 648.029 628.537C644.984 631.982 643.271 636.403 643.199 641.001C643.127 645.598 644.701 650.07 647.636 653.609C648.273 654.379 646.993 655.259 646.36 654.494Z" fill="white"/>
<path d="M626.236 692.071C636.271 693.157 646.348 690.42 654.455 684.407C655.258 683.811 656.141 685.088 655.34 685.684C646.891 691.925 636.399 694.752 625.958 693.598C624.963 693.488 625.246 691.961 626.236 692.071Z" fill="white"/>
<path d="M684.133 629.612C685.036 631.342 686.355 632.821 687.97 633.916C689.586 635.01 691.449 635.686 693.39 635.883C694.386 635.981 694.102 637.508 693.113 637.411C690.969 637.184 688.913 636.434 687.125 635.229C685.337 634.024 683.871 632.399 682.856 630.497C682.745 630.325 682.704 630.118 682.74 629.918C682.777 629.717 682.888 629.538 683.052 629.416C683.222 629.3 683.43 629.255 683.633 629.292C683.835 629.329 684.015 629.444 684.133 629.612Z" fill="white"/>
<path d="M796.487 610.785C789.137 617.249 779.733 620.896 769.947 621.079C760.16 621.263 750.626 617.969 743.039 611.785L742.879 611.653L742.874 611.448C742.784 608.022 742.25 604.622 741.285 601.333C741.237 603.701 740.891 606.053 740.257 608.334L740.051 609.102L739.498 608.531C739.021 608.039 738.559 607.539 738.125 607.046C735.572 604.149 733.434 600.911 731.772 597.426C724.232 581.584 712.881 567.436 698.034 555.373C695.489 553.303 693.122 551.025 690.956 548.562C681.805 538.152 676.66 524.824 676.44 510.965C676.22 497.106 680.941 483.622 689.757 472.927C698.573 462.231 710.908 455.023 724.554 452.593C738.199 450.163 752.264 452.67 764.23 459.665L764.595 459.878L764.406 460.255C763.02 463.132 761.19 465.772 758.983 468.078C762.017 466.439 764.825 464.41 767.335 462.044L767.6 461.794L767.9 462.001C771.831 464.72 775.415 467.91 778.571 471.499L778.911 471.889C781.32 474.645 784.283 476.862 787.607 478.396C790.93 479.929 794.54 480.745 798.2 480.79C804.171 480.891 810.05 482.284 815.432 484.873C820.814 487.463 825.571 491.187 829.376 495.791C833.181 500.395 835.943 505.768 837.473 511.541C839.003 517.314 839.265 523.35 838.239 529.234L838.192 529.507L837.927 529.587C832.332 531.29 827.681 531.876 823.476 531.391C827.559 533.169 831.908 534.258 836.347 534.615L836.921 534.66L836.739 535.206C834.426 542.15 830.311 548.355 824.813 553.187L824.656 553.325C824.6 553.373 824.545 553.422 824.489 553.47C820.393 556.998 817.042 561.308 814.633 566.148C812.224 570.987 810.806 576.259 810.462 581.655C810.189 587.196 808.813 592.627 806.413 597.629C804.013 602.632 800.639 607.104 796.487 610.785Z" fill="#6C63FF"/>
<path opacity="0.15" d="M804.015 597.492C803.94 598.982 803.785 600.466 803.55 601.938C807.58 595.75 809.899 588.604 810.27 581.228C810.325 580.099 810.444 578.974 810.603 577.854C806.687 583.692 804.412 590.474 804.015 597.492Z" fill="black"/>
<path opacity="0.15" d="M817.028 547.228C820.312 548.651 823.772 549.629 827.314 550.137C828.679 548.696 829.939 547.159 831.083 545.538C825.668 547.147 821.132 547.702 817.028 547.228Z" fill="black"/>
<path opacity="0.15" d="M832.187 533.648C832.553 537.222 832.454 540.829 831.893 544.378C833.854 541.394 835.419 538.168 836.547 534.78L836.729 534.234L836.156 534.188C834.824 534.075 833.5 533.894 832.187 533.648Z" fill="black"/>
<path opacity="0.15" d="M828.36 494.398C824.553 490.079 819.888 486.6 814.662 484.184C809.436 481.768 803.765 480.467 798.008 480.364C794.348 480.319 790.738 479.503 787.415 477.969C784.091 476.435 781.128 474.218 778.719 471.463L778.379 471.073C775.223 467.483 771.639 464.293 767.708 461.574L767.408 461.367L767.143 461.617C764.633 463.983 761.826 466.012 758.791 467.652C760.998 465.345 762.828 462.705 764.214 459.829L764.403 459.451L764.039 459.238C756.106 454.595 747.188 451.894 738.012 451.354C728.836 450.814 719.663 452.451 711.24 456.131C702.818 459.811 695.384 465.431 689.547 472.531C683.71 479.631 679.634 488.011 677.651 496.986C681.469 490.28 686.58 484.398 692.687 479.681C698.794 474.965 705.777 471.507 713.231 469.509C720.684 467.51 728.46 467.011 736.108 468.04C743.755 469.069 751.123 471.605 757.783 475.502L758.148 475.715L757.959 476.093C756.573 478.969 754.743 481.609 752.535 483.916C755.57 482.276 758.378 480.248 760.888 477.881L761.153 477.631L761.453 477.838C765.384 480.557 768.967 483.747 772.124 487.337L772.464 487.727C774.873 490.482 777.836 492.699 781.16 494.233C784.483 495.767 788.093 496.583 791.753 496.628C801.323 496.79 810.541 500.266 817.834 506.464C825.128 512.662 830.046 521.199 831.75 530.617C833.773 530.255 835.771 529.769 837.735 529.161L838 529.08L838.047 528.807C839.121 522.713 838.808 516.454 837.131 510.497C835.454 504.54 832.456 499.038 828.36 494.398Z" fill="black"/>
<path d="M915.425 324.121C915.422 355.638 904.243 386.132 883.874 410.182C863.505 434.232 835.268 450.28 804.182 455.471L803.524 455.579L803.015 455.155C794.541 448.087 785.185 442.148 775.182 437.487C780.803 442.639 785.755 448.476 789.923 454.86L791.341 456.991L788.785 457.114C786.58 457.222 784.388 457.275 782.273 457.275C769.84 457.286 757.465 455.57 745.504 452.177C691.17 436.718 632.823 434.075 572.085 444.32C561.67 446.07 551.128 446.95 540.567 446.949C437.004 446.949 352.749 362.677 352.749 259.094C352.693 219.6 365.106 181.097 388.217 149.072C411.328 117.047 443.959 93.134 481.458 80.7426L482.75 80.315L483.26 81.5752C487.267 91.0419 489.758 101.081 490.64 111.323C493.13 100.499 494.196 89.3964 493.812 78.2965L493.772 77.1245L494.911 76.8389C509.844 73.1171 525.177 71.2365 540.567 71.2388L542.233 71.2457C554.019 71.2807 565.68 68.8314 576.456 64.0575C587.232 59.2836 596.881 52.2922 604.773 43.5392C617.715 29.3151 633.585 18.0633 651.291 10.5581C668.996 3.05291 688.118 -0.527648 707.339 0.0627695C726.561 0.653187 745.426 5.40057 762.638 13.9783C779.85 22.5561 794.999 34.7606 807.044 49.7522L807.604 50.4464L807.234 51.26C799.454 68.4066 790.979 80.8984 780.862 90.0335C793.845 83.9433 805.728 75.7439 816.03 65.7685L817.359 64.4788L818.292 66.0801C830.163 86.4387 836.414 109.585 836.405 133.152L836.403 133.824C836.402 134.061 836.401 134.3 836.401 134.537C836.401 170.587 850.342 204.756 874.713 228.388C887.531 240.831 897.735 255.708 904.726 272.148C911.717 288.587 915.355 306.257 915.425 324.121Z" fill="#6C63FF"/>
<g opacity="0.15">
<path d="M752.638 9.45264C748.047 17.0717 742.399 24.0009 735.861 30.0334C745.222 25.6388 754.022 20.1386 762.074 13.6503C758.985 12.1287 755.84 10.7295 752.638 9.45264Z" fill="black"/>
<path d="M829.712 168.387C836.954 175.415 843.377 183.239 848.858 191.712C840.609 173.782 836.359 154.273 836.401 134.537C836.401 134.3 836.401 134.061 836.403 133.824L836.405 133.152C836.414 109.585 830.163 86.4385 818.292 66.0798L817.359 64.4785L816.029 65.7682C808.688 72.8639 800.537 79.0707 791.744 84.2605C794.011 116.678 807.545 146.892 829.712 168.387Z" fill="black"/>
<path d="M791.405 73.152L791.403 73.8237C791.401 74.0609 791.401 74.2997 791.401 74.5369C791.401 75.8439 791.425 77.1477 791.461 78.4494C797.732 70.0133 803.024 60.8916 807.234 51.26L807.604 50.4464L807.043 49.7522C800.019 41.0108 791.926 33.1841 782.955 26.4551C788.541 41.3904 791.403 57.2064 791.405 73.152Z" fill="black"/>
<path d="M874.712 228.387C868.306 222.156 862.615 215.231 857.741 207.74C866.468 226.332 870.771 246.693 870.313 267.226C869.856 287.759 864.649 307.908 855.102 326.092C845.555 344.277 831.927 360.004 815.285 372.041C798.644 384.077 779.441 392.097 759.181 395.471L758.524 395.579L758.015 395.155C749.54 388.087 740.184 382.148 730.182 377.487C735.802 382.639 740.755 388.475 744.922 394.86L746.34 396.991L743.785 397.114C741.579 397.221 739.388 397.275 737.272 397.275C724.839 397.286 712.465 395.57 700.504 392.177C646.169 376.718 587.822 374.075 527.084 384.319C516.67 386.07 506.127 386.95 495.567 386.949C449.533 386.984 405.104 370.041 370.783 339.363C400.933 402.903 465.7 446.949 540.567 446.949C551.127 446.95 561.67 446.07 572.084 444.32C632.822 434.075 691.169 436.718 745.504 452.177C757.465 455.57 769.839 457.286 782.272 457.275C784.388 457.275 786.579 457.221 788.785 457.114L791.34 456.991L789.922 454.86C785.755 448.475 780.802 442.639 775.182 437.487C785.184 442.148 794.54 448.087 803.015 455.155L803.524 455.579L804.181 455.471C828.509 451.424 851.233 440.697 869.819 424.486C888.405 408.276 902.12 387.219 909.435 363.667C916.751 340.115 917.377 314.994 911.246 291.106C905.115 267.219 892.466 245.505 874.712 228.387Z" fill="black"/>
</g>
<path d="M248.064 290.425C240.897 282.702 237.18 271.114 240.991 261.291C246.699 271.226 255.737 278.821 266.506 282.734C270.664 284.227 275.445 285.456 277.716 289.247C279.028 291.698 279.349 294.56 278.613 297.241C277.872 299.892 276.794 302.437 275.405 304.814L275.4 305.501C265.28 302.568 255.231 298.148 248.064 290.425Z" fill="#6C63FF"/>
<path d="M604.063 514.425C596.896 506.702 593.179 495.114 596.99 485.291C602.698 495.226 611.736 502.821 622.505 506.734C626.663 508.227 631.444 509.456 633.715 513.247C635.027 515.698 635.348 518.56 634.612 521.241C633.871 523.892 632.793 526.437 631.404 528.814L631.399 529.501C621.279 526.568 611.23 522.148 604.063 514.425Z" fill="#6C63FF"/>
<path d="M771.93 658.998C766.923 649.728 766.225 637.578 772.372 629.022C775.413 640.069 782.263 649.684 791.71 656.166C795.363 658.653 799.684 661.039 800.934 665.277C801.591 667.979 801.186 670.83 799.802 673.242C798.421 675.623 796.74 677.818 794.801 679.772L794.624 680.435C785.56 675.063 776.937 668.269 771.93 658.998Z" fill="#6C63FF"/>
<path d="M892.93 479.998C887.924 470.728 887.224 458.578 893.372 450.022C896.413 461.069 903.263 470.684 912.71 477.166C916.363 479.653 920.684 482.039 921.934 486.277C922.591 488.979 922.186 491.83 920.802 494.242C919.421 496.623 917.74 498.818 915.801 500.772L915.624 501.435C906.56 496.063 897.937 489.269 892.93 479.998Z" fill="#6C63FF"/>
<path d="M209.963 471.977C204.956 462.706 204.257 450.556 210.404 442C213.445 453.047 220.295 462.662 229.742 469.145C233.395 471.631 237.716 474.017 238.966 478.255C239.623 480.957 239.218 483.808 237.834 486.22C236.453 488.602 234.773 490.796 232.834 492.75L232.657 493.413C223.593 488.042 214.969 481.247 209.963 471.977Z" fill="#6C63FF"/>
<path d="M860.485 743.359H1.19115C0.875955 743.358 0.573977 743.232 0.351425 743.009C0.128873 742.786 0.00390625 742.483 0.00390625 742.168C0.00390625 741.853 0.128873 741.551 0.351425 741.328C0.573977 741.104 0.875955 740.978 1.19115 740.978H860.485C860.8 740.978 861.102 741.104 861.325 741.328C861.547 741.551 861.672 741.853 861.672 742.168C861.672 742.483 861.547 742.786 861.325 743.009C861.102 743.232 860.8 743.358 860.485 743.359Z" fill="#CCCCCC"/>
</g>
<defs>
<clipPath id="clip0_1267_48">
<rect width="922.274" height="743.359" fill="white"/>
</clipPath>
</defs>
</svg>
